<?xml version="1.0" encoding="UTF-8" standalone="no"?>
<svg
   xmlns:dc="http://purl.org/dc/elements/1.1/"
   xmlns:cc="http://creativecommons.org/ns#"
   xmlns:rdf="http://www.w3.org/1999/02/22-rdf-syntax-ns#"
   xmlns:svg="http://www.w3.org/2000/svg"
   xmlns="http://www.w3.org/2000/svg"
   xmlns:xlink="http://www.w3.org/1999/xlink"
   id="svg8"
   version="1.1"
   viewBox="0 0 200 200"
   height="200"
   width="200">
  <defs
     id="defs2" />
  <metadata
     id="metadata5">
    <rdf:RDF>
      <cc:Work
         rdf:about="">
        <dc:format>image/svg+xml</dc:format>
        <dc:type
           rdf:resource="http://purl.org/dc/dcmitype/StillImage" />
        <dc:title></dc:title>
      </cc:Work>
    </rdf:RDF>
  </metadata>
  <rect
     style="opacity:1;vector-effect:none;fill:#e3dedb;fill-opacity:1;stroke:none;stroke-width:2.9377892;stroke-linecap:round;stroke-linejoin:round;stroke-miterlimit:10;stroke-dasharray:none;stroke-dashoffset:0;stroke-opacity:1;paint-order:markers fill stroke"
     id="rect911"
     width="100"
     height="100"
     x="0"
     y="0"
     ry="0.36740202" />
  <rect
     style="opacity:1;vector-effect:none;fill:#e3dedb;fill-opacity:1;stroke:none;stroke-width:2.9377892;stroke-linecap:round;stroke-linejoin:round;stroke-miterlimit:10;stroke-dasharray:none;stroke-dashoffset:0;stroke-opacity:1;paint-order:markers fill stroke"
     id="rect1052"
     width="100"
     height="100"
     x="-269.28571"
     y="-100"
     ry="0.36740202" />
  <rect
     ry="0.36740202"
     y="92.85714"
     x="-137.85715"
     height="100"
     width="100"
     id="rect859"
     style="opacity:1;vector-effect:none;fill:#e3dedb;fill-opacity:1;stroke:none;stroke-width:2.9377892;stroke-linecap:round;stroke-linejoin:round;stroke-miterlimit:10;stroke-dasharray:none;stroke-dashoffset:0;stroke-opacity:1;paint-order:markers fill stroke" />
  <g
     style="display:inline"
     id="layer1">
    <g
       transform="translate(42.426407,227.28432)"
       id="staff">
      <use
         x="0"
         y="0"
         xlink:href="#actionbg"
         id="use1027"
         transform="translate(-13.005715,-227.356)"
         width="100%"
         height="100%" />
      <path
         d="m 18.292169,14.787486 -3.570851,-0.06617 0.06617,3.570851 L 11.728122,16.449441 10,19.574972 8.2718775,16.449441 5.2125139,18.292169 5.2786817,14.721318 1.7078309,14.787486 3.5505593,11.728122 0.42502785,10 3.5505593,8.2718775 1.7078309,5.2125139 5.2786817,5.2786817 5.212514,1.7078309 8.2718776,3.5505593 10,0.42502785 11.728122,3.5505593 14.787486,1.7078309 14.721318,5.2786817 18.292169,5.212514 16.449441,8.2718776 19.574972,10 16.449441,11.728122 Z"
         id="path1029"
         style="opacity:1;vector-effect:none;fill:#cc00ff;fill-opacity:1;stroke:#800000;stroke-width:0.8501454;stroke-linecap:round;stroke-linejoin:round;stroke-miterlimit:4;stroke-dasharray:none;stroke-dashoffset:0;stroke-opacity:1;paint-order:markers fill stroke" />
    </g>
    <g
       transform="translate(42.426407,227.28432)"
       id="tough">
      <use
         x="0"
         y="0"
         xlink:href="#actionbg"
         id="use821"
         transform="translate(-13.005715,-227.356)"
         width="100%"
         height="100%" />
      <path
         d="m 18.292169,14.787486 -3.570851,-0.06617 0.06617,3.570851 L 11.728122,16.449441 10,19.574972 8.2718775,16.449441 5.2125139,18.292169 5.2786817,14.721318 1.7078309,14.787486 3.5505593,11.728122 0.42502785,10 3.5505593,8.2718775 1.7078309,5.2125139 5.2786817,5.2786817 5.212514,1.7078309 8.2718776,3.5505593 10,0.42502785 11.728122,3.5505593 14.787486,1.7078309 14.721318,5.2786817 18.292169,5.212514 16.449441,8.2718776 19.574972,10 16.449441,11.728122 Z"
         id="path823"
         style="opacity:1;vector-effect:none;fill:#ffff00;fill-opacity:1;stroke:#800000;stroke-width:0.8501454;stroke-linecap:round;stroke-linejoin:round;stroke-miterlimit:4;stroke-dasharray:none;stroke-dashoffset:0;stroke-opacity:1;paint-order:markers fill stroke" />
    </g>
    <g
       transform="translate(42.426407,227.28432)"
       id="hit">
      <use
         x="0"
         y="0"
         xlink:href="#actionbg"
         id="use826"
         transform="translate(-13.005715,-227.356)"
         width="100%"
         height="100%" />
      <path
         d="m 18.292169,14.787486 -3.570851,-0.06617 0.06617,3.570851 L 11.728122,16.449441 10,19.574972 8.2718775,16.449441 5.2125139,18.292169 5.2786817,14.721318 1.7078309,14.787486 3.5505593,11.728122 0.42502785,10 3.5505593,8.2718775 1.7078309,5.2125139 5.2786817,5.2786817 5.212514,1.7078309 8.2718776,3.5505593 10,0.42502785 11.728122,3.5505593 14.787486,1.7078309 14.721318,5.2786817 18.292169,5.212514 16.449441,8.2718776 19.574972,10 16.449441,11.728122 Z"
         id="path828"
         style="opacity:1;vector-effect:none;fill:#ff0000;fill-opacity:1;stroke:#800000;stroke-width:0.8501454;stroke-linecap:round;stroke-linejoin:round;stroke-miterlimit:4;stroke-dasharray:none;stroke-dashoffset:0;stroke-opacity:1;paint-order:markers fill stroke" />
    </g>
    <g
       transform="translate(42.426407,227.28432)"
       id="life">
      <use
         height="100%"
         width="100%"
         transform="translate(-13.005715,-227.356)"
         id="use1031"
         xlink:href="#actionbg"
         y="0"
         x="0" />
      <path
         d="M 18.660254,15 14.930895,14.930895 15,18.660254 11.804833,16.735727 10,20 8.1951672,16.735727 5,18.660254 5.0691053,14.930895 1.3397459,15 3.2642726,11.804833 0,10 3.2642726,8.1951672 1.339746,5 5.0691054,5.0691053 5,1.3397459 8.1951673,3.2642726 10,0 11.804833,3.2642726 15,1.339746 14.930895,5.0691054 18.660254,5 16.735727,8.1951673 20,10 16.735727,11.804833 Z"
         id="path881"
         style="opacity:1;vector-effect:none;fill:#ffff00;fill-opacity:1;stroke:none;stroke-width:0.88788283;stroke-linecap:round;stroke-linejoin:round;stroke-miterlimit:4;stroke-dasharray:none;stroke-dashoffset:0;stroke-opacity:1;paint-order:markers fill stroke" />
      <path
         style="opacity:1;vector-effect:none;fill:#ff0000;fill-opacity:1;stroke:none;stroke-width:0.48282164;stroke-linecap:round;stroke-linejoin:round;stroke-miterlimit:4;stroke-dasharray:none;stroke-dashoffset:0;stroke-opacity:1;paint-order:markers fill stroke"
         d="m 2.411794,8.137117 a 3.9229259,3.9229259 0 0 0 1.43589,5.358816 l 6.79471,3.922926 3.92292,-6.794706 a 3.9229259,3.9229259 0 0 0 -1.43589,-5.358816 3.9229259,3.9229259 0 0 0 -5.35881,1.43589 3.9229259,3.9229259 0 0 0 -5.35882,1.43589 z"
         id="path902" />
    </g>
    <g
       transform="translate(42.426407,227.28432)"
       id="gold">
      <use
         height="100%"
         width="100%"
         transform="translate(-13.005715,-227.356)"
         id="use1019"
         xlink:href="#actionbg"
         y="0"
         x="0" />
      <circle
         r="9"
         cy="10"
         cx="10"
         id="circle1139"
         style="opacity:1;vector-effect:none;fill:#ffd42a;fill-opacity:1;stroke:none;stroke-width:1.18588233;stroke-linecap:round;stroke-linejoin:round;stroke-miterlimit:4;stroke-dasharray:none;stroke-dashoffset:0;stroke-opacity:1;paint-order:markers fill stroke" />
      <path
         id="circle991"
         d="m 10.000555,1.837887 c -4.50169,0 -8.16211,3.660418 -8.16211,8.162109 0,4.501691 3.66042,8.162109 8.16211,8.162109 4.50169,0 8.16211,-3.660418 8.16211,-8.162109 0,-4.501691 -3.66042,-8.162109 -8.16211,-8.162109 z m 0,1.009765 c 3.95641,0 7.15235,3.195941 7.15235,7.152344 0,3.956403 -3.19594,7.152344 -7.15235,7.152344 -3.9564,0 -7.15429,-3.195941 -7.15429,-7.152344 0,-3.956403 3.19789,-7.152344 7.15429,-7.152344 z"
         style="color:#000000;font-style:normal;font-variant:normal;font-weight:normal;font-stretch:normal;font-size:medium;line-height:normal;font-family:sans-serif;font-variant-ligatures:normal;font-variant-position:normal;font-variant-caps:normal;font-variant-numeric:normal;font-variant-alternates:normal;font-feature-settings:normal;text-indent:0;text-align:start;text-decoration:none;text-decoration-line:none;text-decoration-style:solid;text-decoration-color:#000000;letter-spacing:normal;word-spacing:normal;text-transform:none;writing-mode:lr-tb;direction:ltr;text-orientation:mixed;dominant-baseline:auto;baseline-shift:baseline;text-anchor:start;white-space:normal;shape-padding:0;clip-rule:nonzero;display:inline;overflow:visible;visibility:visible;opacity:1;isolation:auto;mix-blend-mode:normal;color-interpolation:sRGB;color-interpolation-filters:linearRGB;solid-color:#000000;solid-opacity:1;vector-effect:none;fill:#aa8800;fill-opacity:1;fill-rule:nonzero;stroke:none;stroke-width:1.00897074;stroke-linecap:round;stroke-linejoin:round;stroke-miterlimit:4;stroke-dasharray:none;stroke-dashoffset:0;stroke-opacity:1;paint-order:markers fill stroke;color-rendering:auto;image-rendering:auto;shape-rendering:auto;text-rendering:auto;enable-background:accumulate" />
      <g
         transform="matrix(0.9,0,0,0.9,-93.017856,-30.500004)"
         id="text1007"
         style="font-style:normal;font-variant:normal;font-weight:normal;font-stretch:normal;font-size:18.59233475px;line-height:1.25;font-family:'AR JULIAN';-inkscape-font-specification:'AR JULIAN, Normal';font-variant-ligatures:normal;font-variant-caps:normal;font-variant-numeric:normal;font-feature-settings:normal;text-align:start;letter-spacing:0px;word-spacing:0px;writing-mode:lr-tb;text-anchor:start;fill:#aa8800;fill-opacity:1;stroke:none;stroke-width:0.46480837"
         aria-label="1">
        <path
           id="path1009"
           style="fill:#aa8800;stroke-width:0.46480837"
           d="m 115.88324,49.158811 q 0,0.508384 0.5447,0.68995 0.2905,0.09078 0.49023,0.217879 0.21788,0.127096 0.21788,0.272348 0,0.490228 -0.45392,0.490228 h -4.39389 q -0.30866,0 -0.36313,-0.108939 -0.0545,-0.127096 -0.0545,-0.381289 0,-0.145252 0.23603,-0.272348 0.23604,-0.127096 0.52654,-0.217879 0.56286,-0.181566 0.56286,-0.68995 v -8.424652 q -0.34498,0.127096 -0.59917,0.181566 -0.25419,0.03631 -0.59917,0.127096 -0.21787,0.05447 -0.39944,-0.09078 -0.16341,-0.163409 -0.21788,-0.381288 -0.0545,-0.217879 0.0363,-0.435758 0.0908,-0.236035 0.41761,-0.326818 0.58101,-0.163409 1.03492,-0.308662 0.45391,-0.145253 0.81705,-0.272349 0.38128,-0.145252 0.7081,-0.254192 0.32682,-0.127096 0.6718,-0.217879 0.0726,-0.01816 0.21787,-0.01816 0.14526,-0.01816 0.27235,0.03631 0.1271,0.03631 0.21788,0.181566 0.10894,0.127096 0.10894,0.399444 z" />
      </g>
    </g>
    <path
       style="opacity:1;vector-effect:none;fill:#cccccc;fill-opacity:1;stroke:none;stroke-width:1.49426341;stroke-linecap:round;stroke-linejoin:round;stroke-miterlimit:4;stroke-dasharray:none;stroke-dashoffset:0;stroke-opacity:1;paint-order:markers fill stroke"
       d="m 15.458547,227.356 h 15.094339 c 1.358868,0 2.452831,1.09396 2.452831,2.45283 v 15.09434 c 0,1.35887 -1.093963,2.45283 -2.452831,2.45283 H 15.458547 c -1.358868,0 -2.45283,-1.09396 -2.45283,-2.45283 v -15.09434 c 0,-1.35887 1.093962,-2.45283 2.45283,-2.45283 z"
       id="actionbg" />
    <g
       transform="translate(-42.500002,215.8988)"
       id="icon-exit">
      <use
         x="0"
         y="0"
         xlink:href="#actionbg"
         id="use1192"
         transform="translate(-13.005715,-227.356)"
         width="100%"
         height="100%" />
      <path
         id="path1075-7"
         d="M 9.9874206,0.64009046 A 5.4027232,5.4027232 0 0 0 4.5851418,6.0423692 5.4027232,5.4027232 0 0 0 4.6146882,6.5576126 l -0.00674,-5.119e-4 1.0196009,12.2813473 8.8622879,0.521462 0.814334,-12.3425117 -0.0062,-5.119e-4 A 5.4027232,5.4027232 0 0 0 15.390218,6.0423692 5.4027232,5.4027232 0 0 0 9.9874206,0.64009046 Z"
         style="opacity:1;vector-effect:none;fill:#999999;fill-opacity:1;stroke:#000000;stroke-width:0.21331438;stroke-linecap:round;stroke-linejoin:round;stroke-miterlimit:4;stroke-dasharray:none;stroke-dashoffset:0;stroke-opacity:1;paint-order:markers fill stroke" />
      <path
         id="path1082-5"
         d="M 4.364537,9.0427149 3.8875634,7.7516396 16.142192,7.8173272 15.905231,9.4049696 Z"
         style="fill:#808080;stroke:#000000;stroke-width:0.21331438;stroke-linecap:butt;stroke-linejoin:miter;stroke-miterlimit:4;stroke-dasharray:none;stroke-opacity:1" />
      <path
         style="fill:#808080;stroke:#000000;stroke-width:0.21331438;stroke-linecap:butt;stroke-linejoin:miter;stroke-miterlimit:4;stroke-dasharray:none;stroke-opacity:1"
         d="m 15.895344,14.450462 -0.285549,-1.251914 -11.4964686,0.06921 0.2427128,1.586771 z"
         id="path1084-3" />
      <path
         style="opacity:1;vector-effect:none;fill:#000000;fill-opacity:1;stroke:none;stroke-width:0.44258472;stroke-linecap:round;stroke-linejoin:round;stroke-miterlimit:10;stroke-dasharray:none;stroke-dashoffset:0;stroke-opacity:1;paint-order:markers fill stroke"
         d="m 13.214931,9.8466721 a 0.72630441,0.72630441 0 0 1 0.726467,0.7264659 0.72630441,0.72630441 0 0 1 -0.449276,0.671122 l 0.292541,1.372469 -1.142718,0.105111 0.207429,-1.521762 a 0.72630441,0.72630441 0 0 1 -0.360906,-0.62694 0.72630441,0.72630441 0 0 1 0.726463,-0.7264659 z"
         id="path871-3-5" />
    </g>
    <path
       id="path981"
       d="m -177.85714,406.97023 -20.71429,-17.5 -19.28571,34.64286 8.21428,22.14286"
       style="fill:none;stroke:#000000;stroke-width:1px;stroke-linecap:butt;stroke-linejoin:miter;stroke-opacity:1" />
    <path
       style="fill:none;stroke:#000000;stroke-width:1px;stroke-linecap:butt;stroke-linejoin:miter;stroke-opacity:1"
       d="m -183.658,390.39397 -15.47913,-22.26496 -27.5948,28.47093 2.2034,23.51437"
       id="path983" />
    <path
       id="path985"
       d="m -181.65695,375.21108 -2.27284,-27.02158 -38.13327,10.85914 -9.84898,21.46574"
       style="fill:none;stroke:#000000;stroke-width:1px;stroke-linecap:butt;stroke-linejoin:miter;stroke-opacity:1" />
    <path
       style="fill:none;stroke:#000000;stroke-width:1px;stroke-linecap:butt;stroke-linejoin:miter;stroke-opacity:1"
       d="m -177.5,415.54166 -21.33195,8.77313 -4.73764,26.07302 18.18521,15.06914"
       id="path987" />
    <path
       id="path997"
       d="m -201.34877,376.54864 -20.71429,-17.5 -15,30 3.92857,26.78571"
       style="fill:none;stroke:#000000;stroke-width:5;stroke-linecap:round;stroke-linejoin:round;stroke-miterlimit:4;stroke-dasharray:none;stroke-opacity:1" />
    <path
       style="fill:none;stroke:#000000;stroke-width:5;stroke-linecap:round;stroke-linejoin:round;stroke-miterlimit:4;stroke-dasharray:none;stroke-opacity:1"
       d="m -207.14963,359.97238 -12.62199,-30.1221 -27.5948,28.47092 -0.65375,31.37151"
       id="path999" />
    <path
       id="path1001"
       d="m -205.14858,344.78949 -4.77285,-41.66444 -38.13326,10.85914 -7.34899,36.1086"
       style="fill:none;stroke:#000000;stroke-width:5;stroke-linecap:round;stroke-linejoin:round;stroke-miterlimit:4;stroke-dasharray:none;stroke-opacity:1" />
    <path
       style="fill:none;stroke:#000000;stroke-width:5;stroke-linecap:round;stroke-linejoin:round;stroke-miterlimit:4;stroke-dasharray:none;stroke-opacity:1"
       d="m -200.99163,385.12007 -17.40338,5.55884 -4.73764,26.07302 14.25664,18.28343"
       id="path1003" />
    <g
       id="spider">
      <path
         id="path965"
         d="m 33.641136,43.896388 a 1.2890333,1.2890333 0 0 0 -1.154972,0.71293 l -7.733431,15.466854 a 1.2890333,1.2890333 0 0 0 -0.122843,0.763269 l 2.025991,13.809407 a 1.2890333,1.2890333 0 1 0 2.550621,-0.373586 L 27.239916,60.866631 34.059027,47.2274 l 9.428134,7.965033 a 1.2890333,1.2890333 0 1 0 1.66349,-1.968606 L 34.470873,44.201496 a 1.2890333,1.2890333 0 0 0 -0.829737,-0.305108 z"
         style="color:#000000;font-style:normal;font-variant:normal;font-weight:normal;font-stretch:normal;font-size:medium;line-height:normal;font-family:sans-serif;font-variant-ligatures:normal;font-variant-position:normal;font-variant-caps:normal;font-variant-numeric:normal;font-variant-alternates:normal;font-feature-settings:normal;text-indent:0;text-align:start;text-decoration:none;text-decoration-line:none;text-decoration-style:solid;text-decoration-color:#000000;letter-spacing:normal;word-spacing:normal;text-transform:none;writing-mode:lr-tb;direction:ltr;text-orientation:mixed;dominant-baseline:auto;baseline-shift:baseline;text-anchor:start;white-space:normal;shape-padding:0;clip-rule:nonzero;display:inline;overflow:visible;visibility:visible;opacity:1;isolation:auto;mix-blend-mode:normal;color-interpolation:sRGB;color-interpolation-filters:linearRGB;solid-color:#000000;solid-opacity:1;vector-effect:none;fill:#ff0000;fill-opacity:1;fill-rule:nonzero;stroke:#000000;stroke-width:0.99999994;stroke-linecap:round;stroke-linejoin:round;stroke-miterlimit:4.76923084;stroke-dasharray:none;stroke-dashoffset:0;stroke-opacity:1;color-rendering:auto;image-rendering:auto;shape-rendering:auto;text-rendering:auto;enable-background:accumulate" />
      <path
         id="path967"
         d="m 34.787058,28.843401 a 1.2890333,1.2890333 0 0 0 -0.892164,0.391703 L 19.667596,43.91351 a 1.2890333,1.2890333 0 0 0 -0.362501,0.870009 l -0.337331,16.173739 a 1.2891919,1.2891919 0 1 0 2.57781,0.05438 l 0.326253,-15.668244 12.515465,-12.912209 5.751735,13.728848 a 1.2890333,1.2890333 0 1 0 2.37743,-0.995882 L 36.0095,29.633861 a 1.2890333,1.2890333 0 0 0 -1.222442,-0.79046 z"
         style="color:#000000;font-style:normal;font-variant:normal;font-weight:normal;font-stretch:normal;font-size:medium;line-height:normal;font-family:sans-serif;font-variant-ligatures:normal;font-variant-position:normal;font-variant-caps:normal;font-variant-numeric:normal;font-variant-alternates:normal;font-feature-settings:normal;text-indent:0;text-align:start;text-decoration:none;text-decoration-line:none;text-decoration-style:solid;text-decoration-color:#000000;letter-spacing:normal;word-spacing:normal;text-transform:none;writing-mode:lr-tb;direction:ltr;text-orientation:mixed;dominant-baseline:auto;baseline-shift:baseline;text-anchor:start;white-space:normal;shape-padding:0;clip-rule:nonzero;display:inline;overflow:visible;visibility:visible;opacity:1;isolation:auto;mix-blend-mode:normal;color-interpolation:sRGB;color-interpolation-filters:linearRGB;solid-color:#000000;solid-opacity:1;vector-effect:none;fill:#ff0000;fill-opacity:1;fill-rule:nonzero;stroke:#000000;stroke-width:0.99999994;stroke-linecap:round;stroke-linejoin:round;stroke-miterlimit:4.76923084;stroke-dasharray:none;stroke-dashoffset:0;stroke-opacity:1;color-rendering:auto;image-rendering:auto;shape-rendering:auto;text-rendering:auto;enable-background:accumulate" />
      <path
         id="path969"
         d="m 39.842986,15.066218 a 1.2890333,1.2890333 0 0 0 -0.297052,0.04735 l -19.659826,5.598681 a 1.2890333,1.2890333 0 0 0 -0.91028,0.982792 l -3.789182,18.616611 a 1.2890597,1.2890597 0 1 0 2.526453,0.513543 l 3.632095,-17.848299 17.446529,-4.96833 2.286794,19.971979 a 1.2892019,1.2892019 0 1 0 2.561699,-0.293027 l -2.461004,-21.48042 a 1.2890333,1.2890333 0 0 0 -1.336226,-1.14088 z"
         style="color:#000000;font-style:normal;font-variant:normal;font-weight:normal;font-stretch:normal;font-size:medium;line-height:normal;font-family:sans-serif;font-variant-ligatures:normal;font-variant-position:normal;font-variant-caps:normal;font-variant-numeric:normal;font-variant-alternates:normal;font-feature-settings:normal;text-indent:0;text-align:start;text-decoration:none;text-decoration-line:none;text-decoration-style:solid;text-decoration-color:#000000;letter-spacing:normal;word-spacing:normal;text-transform:none;writing-mode:lr-tb;direction:ltr;text-orientation:mixed;dominant-baseline:auto;baseline-shift:baseline;text-anchor:start;white-space:normal;shape-padding:0;clip-rule:nonzero;display:inline;overflow:visible;visibility:visible;opacity:1;isolation:auto;mix-blend-mode:normal;color-interpolation:sRGB;color-interpolation-filters:linearRGB;solid-color:#000000;solid-opacity:1;vector-effect:none;fill:#ff0000;fill-opacity:1;fill-rule:nonzero;stroke:#000000;stroke-width:0.99999994;stroke-linecap:round;stroke-linejoin:round;stroke-miterlimit:4.76923084;stroke-dasharray:none;stroke-dashoffset:0;stroke-opacity:1;color-rendering:auto;image-rendering:auto;shape-rendering:auto;text-rendering:auto;enable-background:accumulate" />
      <path
         id="path971"
         d="m 44.450819,57.334229 a 1.2890333,1.2890333 0 0 0 -0.340353,0.06545 l -8.972986,2.865796 a 1.2890333,1.2890333 0 0 0 -0.875051,0.996883 l -2.442871,13.442875 a 1.2890333,1.2890333 0 0 0 0.251737,1.022061 l 7.349776,9.427133 a 1.2892386,1.2892386 0 1 0 2.033045,-1.585961 l -6.995331,-8.970982 2.20121,-12.112676 8.234894,-2.63017 a 1.2890333,1.2890333 0 0 0 -0.44407,-2.520416 z"
         style="color:#000000;font-style:normal;font-variant:normal;font-weight:normal;font-stretch:normal;font-size:medium;line-height:normal;font-family:sans-serif;font-variant-ligatures:normal;font-variant-position:normal;font-variant-caps:normal;font-variant-numeric:normal;font-variant-alternates:normal;font-feature-settings:normal;text-indent:0;text-align:start;text-decoration:none;text-decoration-line:none;text-decoration-style:solid;text-decoration-color:#000000;letter-spacing:normal;word-spacing:normal;text-transform:none;writing-mode:lr-tb;direction:ltr;text-orientation:mixed;dominant-baseline:auto;baseline-shift:baseline;text-anchor:start;white-space:normal;shape-padding:0;clip-rule:nonzero;display:inline;overflow:visible;visibility:visible;opacity:1;isolation:auto;mix-blend-mode:normal;color-interpolation:sRGB;color-interpolation-filters:linearRGB;solid-color:#000000;solid-opacity:1;vector-effect:none;fill:#ff0000;fill-opacity:1;fill-rule:nonzero;stroke:#000000;stroke-width:0.99999994;stroke-linecap:round;stroke-linejoin:round;stroke-miterlimit:4.76923084;stroke-dasharray:none;stroke-dashoffset:0;stroke-opacity:1;color-rendering:auto;image-rendering:auto;shape-rendering:auto;text-rendering:auto;enable-background:accumulate" />
      <path
         style="color:#000000;font-style:normal;font-variant:normal;font-weight:normal;font-stretch:normal;font-size:medium;line-height:normal;font-family:sans-serif;font-variant-ligatures:normal;font-variant-position:normal;font-variant-caps:normal;font-variant-numeric:normal;font-variant-alternates:normal;font-feature-settings:normal;text-indent:0;text-align:start;text-decoration:none;text-decoration-line:none;text-decoration-style:solid;text-decoration-color:#000000;letter-spacing:normal;word-spacing:normal;text-transform:none;writing-mode:lr-tb;direction:ltr;text-orientation:mixed;dominant-baseline:auto;baseline-shift:baseline;text-anchor:start;white-space:normal;shape-padding:0;clip-rule:nonzero;display:inline;overflow:visible;visibility:visible;opacity:1;isolation:auto;mix-blend-mode:normal;color-interpolation:sRGB;color-interpolation-filters:linearRGB;solid-color:#000000;solid-opacity:1;vector-effect:none;fill:#ff0000;fill-opacity:1;fill-rule:nonzero;stroke:#000000;stroke-width:0.99999994;stroke-linecap:round;stroke-linejoin:round;stroke-miterlimit:4.76923084;stroke-dasharray:none;stroke-dashoffset:0;stroke-opacity:1;color-rendering:auto;image-rendering:auto;shape-rendering:auto;text-rendering:auto;enable-background:accumulate"
         d="m 66.358912,43.159872 a 1.2890333,1.2890333 0 0 1 1.154979,0.71293 l 7.733426,15.466853 a 1.2890333,1.2890333 0 0 1 0.122849,0.76327 l -2.025997,13.809399 a 1.2890333,1.2890333 0 1 1 -2.55062,-0.373578 l 1.966586,-13.408631 -6.81911,-13.639231 -9.428134,7.965033 a 1.2890333,1.2890333 0 1 1 -1.663493,-1.968606 l 10.679781,-9.022332 a 1.2890333,1.2890333 0 0 1 0.829733,-0.305107 z"
         id="path1014" />
      <path
         style="color:#000000;font-style:normal;font-variant:normal;font-weight:normal;font-stretch:normal;font-size:medium;line-height:normal;font-family:sans-serif;font-variant-ligatures:normal;font-variant-position:normal;font-variant-caps:normal;font-variant-numeric:normal;font-variant-alternates:normal;font-feature-settings:normal;text-indent:0;text-align:start;text-decoration:none;text-decoration-line:none;text-decoration-style:solid;text-decoration-color:#000000;letter-spacing:normal;word-spacing:normal;text-transform:none;writing-mode:lr-tb;direction:ltr;text-orientation:mixed;dominant-baseline:auto;baseline-shift:baseline;text-anchor:start;white-space:normal;shape-padding:0;clip-rule:nonzero;display:inline;overflow:visible;visibility:visible;opacity:1;isolation:auto;mix-blend-mode:normal;color-interpolation:sRGB;color-interpolation-filters:linearRGB;solid-color:#000000;solid-opacity:1;vector-effect:none;fill:#ff0000;fill-opacity:1;fill-rule:nonzero;stroke:#000000;stroke-width:0.99999994;stroke-linecap:round;stroke-linejoin:round;stroke-miterlimit:4.76923084;stroke-dasharray:none;stroke-dashoffset:0;stroke-opacity:1;color-rendering:auto;image-rendering:auto;shape-rendering:auto;text-rendering:auto;enable-background:accumulate"
         d="m 65.212996,28.106885 a 1.2890333,1.2890333 0 0 1 0.892163,0.391703 l 14.22729,14.678406 a 1.2890333,1.2890333 0 0 1 0.362502,0.870009 l 0.337332,16.173739 a 1.2891913,1.2891913 0 1 1 -2.577809,0.05438 L 78.128222,44.60687 65.612757,31.694669 59.861021,45.423509 a 1.2890333,1.2890333 0 1 1 -2.377424,-0.995874 l 6.506953,-15.53029 a 1.2890333,1.2890333 0 0 1 1.222446,-0.79046 z"
         id="path1016" />
      <path
         style="color:#000000;font-style:normal;font-variant:normal;font-weight:normal;font-stretch:normal;font-size:medium;line-height:normal;font-family:sans-serif;font-variant-ligatures:normal;font-variant-position:normal;font-variant-caps:normal;font-variant-numeric:normal;font-variant-alternates:normal;font-feature-settings:normal;text-indent:0;text-align:start;text-decoration:none;text-decoration-line:none;text-decoration-style:solid;text-decoration-color:#000000;letter-spacing:normal;word-spacing:normal;text-transform:none;writing-mode:lr-tb;direction:ltr;text-orientation:mixed;dominant-baseline:auto;baseline-shift:baseline;text-anchor:start;white-space:normal;shape-padding:0;clip-rule:nonzero;display:inline;overflow:visible;visibility:visible;opacity:1;isolation:auto;mix-blend-mode:normal;color-interpolation:sRGB;color-interpolation-filters:linearRGB;solid-color:#000000;solid-opacity:1;vector-effect:none;fill:#ff0000;fill-opacity:1;fill-rule:nonzero;stroke:#000000;stroke-width:0.99999994;stroke-linecap:round;stroke-linejoin:round;stroke-miterlimit:4.76923084;stroke-dasharray:none;stroke-dashoffset:0;stroke-opacity:1;color-rendering:auto;image-rendering:auto;shape-rendering:auto;text-rendering:auto;enable-background:accumulate"
         d="m 60.157067,14.329702 a 1.2890333,1.2890333 0 0 1 0.297051,0.04735 l 19.659821,5.598681 a 1.2890333,1.2890333 0 0 1 0.910286,0.982792 l 3.789178,18.616611 a 1.2890597,1.2890597 0 1 1 -2.526454,0.513543 l -3.632091,-17.8483 -17.446529,-4.96833 -2.286798,19.971979 a 1.2892022,1.2892022 0 1 1 -2.561697,-0.293043 l 2.461001,-21.480403 a 1.2890333,1.2890333 0 0 1 1.336232,-1.14088 z"
         id="path1018" />
      <path
         style="color:#000000;font-style:normal;font-variant:normal;font-weight:normal;font-stretch:normal;font-size:medium;line-height:normal;font-family:sans-serif;font-variant-ligatures:normal;font-variant-position:normal;font-variant-caps:normal;font-variant-numeric:normal;font-variant-alternates:normal;font-feature-settings:normal;text-indent:0;text-align:start;text-decoration:none;text-decoration-line:none;text-decoration-style:solid;text-decoration-color:#000000;letter-spacing:normal;word-spacing:normal;text-transform:none;writing-mode:lr-tb;direction:ltr;text-orientation:mixed;dominant-baseline:auto;baseline-shift:baseline;text-anchor:start;white-space:normal;shape-padding:0;clip-rule:nonzero;display:inline;overflow:visible;visibility:visible;opacity:1;isolation:auto;mix-blend-mode:normal;color-interpolation:sRGB;color-interpolation-filters:linearRGB;solid-color:#000000;solid-opacity:1;vector-effect:none;fill:#ff0000;fill-opacity:1;fill-rule:nonzero;stroke:#000000;stroke-width:0.99999994;stroke-linecap:round;stroke-linejoin:round;stroke-miterlimit:4.76923084;stroke-dasharray:none;stroke-dashoffset:0;stroke-opacity:1;color-rendering:auto;image-rendering:auto;shape-rendering:auto;text-rendering:auto;enable-background:accumulate"
         d="m 55.549233,56.597713 a 1.2890333,1.2890333 0 0 1 0.340351,0.06545 l 8.972991,2.865796 a 1.2890333,1.2890333 0 0 1 0.875045,0.996883 l 2.442876,13.442875 a 1.2890333,1.2890333 0 0 1 -0.251739,1.022061 l -7.349776,9.427133 A 1.2892387,1.2892387 0 1 1 58.545936,82.83195 l 6.995327,-8.970982 -2.201207,-12.112676 -8.23489,-2.63017 a 1.2890333,1.2890333 0 0 1 0.444067,-2.520416 z"
         id="path1020" />
      <path
         id="circle960"
         d="m 59.601201,43.712548 c 0,5.084588 -4.121873,9.206463 -9.20646,9.206463 -5.084587,0 -9.206463,-4.121875 -9.206463,-9.206463 0,-5.084588 4.121876,-15.098591 9.206463,-15.098591 5.084588,0 9.206461,10.014003 9.20646,15.098591 z"
         style="opacity:1;vector-effect:none;fill:#ff6600;fill-opacity:1;stroke:#000000;stroke-width:0.99999994;stroke-linecap:round;stroke-linejoin:round;stroke-miterlimit:4.76923084;stroke-dasharray:none;stroke-dashoffset:0;stroke-opacity:1;paint-order:markers fill stroke" />
      <path
         id="path958"
         d="m 56.108478,54.852376 a 5.7137371,5.7137371 0 0 1 -5.713737,5.713738 5.7137371,5.7137371 0 0 1 -5.713737,-5.713738 5.7137371,5.7137371 0 0 1 5.713737,-5.713737 5.7137371,5.7137371 0 0 1 5.713737,5.713737 z"
         style="opacity:1;vector-effect:none;fill:#ff6600;fill-opacity:1;stroke:#000000;stroke-width:0.99999994;stroke-linecap:round;stroke-linejoin:round;stroke-miterlimit:4.76923084;stroke-dasharray:none;stroke-dashoffset:0;stroke-opacity:1;paint-order:markers fill stroke" />
      <path
         id="circle963"
         d="m 57.183162,61.296888 a 6.7884211,6.7884211 0 0 1 -6.788421,6.788421 6.7884211,6.7884211 0 0 1 -6.788421,-6.788421 6.7884211,6.7884211 0 0 1 6.788421,-6.788421 6.7884211,6.7884211 0 0 1 6.788421,6.788421 z"
         style="opacity:1;vector-effect:none;fill:#ff6600;fill-opacity:1;stroke:#000000;stroke-width:0.99999994;stroke-linecap:round;stroke-linejoin:round;stroke-miterlimit:4.76923084;stroke-dasharray:none;stroke-dashoffset:0;stroke-opacity:1;paint-order:markers fill stroke" />
      <path
         id="circle1032"
         d="m 57.387012,57.578832 c 1.110186,1.922896 -0.641992,4.887027 -2.564891,5.997211 -1.922897,1.110184 -3.288358,-0.05398 -4.398542,-1.976872 z"
         style="opacity:1;vector-effect:none;fill:#ffe680;fill-opacity:1;stroke:#000000;stroke-width:0.99999994;stroke-linecap:round;stroke-linejoin:round;stroke-miterlimit:4.76923084;stroke-dasharray:none;stroke-dashoffset:0;stroke-opacity:1;paint-order:markers fill stroke" />
      <path
         style="opacity:1;vector-effect:none;fill:#ffe680;fill-opacity:1;stroke:#000000;stroke-width:0.99999994;stroke-linecap:round;stroke-linejoin:round;stroke-miterlimit:4.76923084;stroke-dasharray:none;stroke-dashoffset:0;stroke-opacity:1;paint-order:markers fill stroke"
         d="m 43.373295,58.816771 c -0.900002,1.558852 0.520444,3.961799 2.079296,4.861801 1.558843,0.900002 2.665795,-0.04379 3.565789,-1.602597 z"
         id="path1035" />
    </g>
    <path
       id="path905"
       d="M 7.1428571,-13.214286 1.4285714,-27.142857 3.5714286,-36.428571 -2.1428571,-55 l 7.5,-19.642857"
       style="fill:none;stroke:#000000;stroke-width:1px;stroke-linecap:butt;stroke-linejoin:miter;stroke-opacity:1" />
  </g>
  <g
     style="display:inline"
     id="layer2">
    <g
       id="west"
       style="display:inline">
      <path
         id="west-wall"
         d="M 0,25 H 75 V 75 H 0 Z"
         style="opacity:1;vector-effect:none;fill:#000000;fill-opacity:1;stroke:none;stroke-width:1.62366807;stroke-linecap:round;stroke-linejoin:round;stroke-miterlimit:4.76923084;stroke-dasharray:none;stroke-dashoffset:0;stroke-opacity:1;paint-order:markers fill stroke" />
      <path
         id="west-light"
         d="M 0,35 H 65 V 65 H 0 Z"
         style="opacity:1;vector-effect:none;fill:#ffe680;fill-opacity:1;stroke:none;stroke-width:1.17084372;stroke-linecap:round;stroke-linejoin:round;stroke-miterlimit:4.76923084;stroke-dasharray:none;stroke-dashoffset:0;stroke-opacity:1;paint-order:markers fill stroke" />
    </g>
    <g
       id="north"
       style="display:inline">
      <path
         id="north-wall"
         d="M 75,0 V 75 H 25 V 0 Z"
         style="opacity:1;vector-effect:none;fill:#000000;fill-opacity:1;stroke:none;stroke-width:1.62366807;stroke-linecap:round;stroke-linejoin:round;stroke-miterlimit:4.76923084;stroke-dasharray:none;stroke-dashoffset:0;stroke-opacity:1;paint-order:markers fill stroke" />
      <path
         id="north-light"
         d="M 65,0 V 65 H 35 V 0 Z"
         style="opacity:1;vector-effect:none;fill:#ffe680;fill-opacity:1;stroke:none;stroke-width:1.17084372;stroke-linecap:round;stroke-linejoin:round;stroke-miterlimit:4.76923084;stroke-dasharray:none;stroke-dashoffset:0;stroke-opacity:1;paint-order:markers fill stroke" />
    </g>
    <g
       id="east"
       style="display:inline">
      <path
         id="east-wall"
         d="M 100,75 H 25 V 25 h 75 z"
         style="opacity:1;vector-effect:none;fill:#000000;fill-opacity:1;stroke:none;stroke-width:1.62366807;stroke-linecap:round;stroke-linejoin:round;stroke-miterlimit:4.76923084;stroke-dasharray:none;stroke-dashoffset:0;stroke-opacity:1;paint-order:markers fill stroke" />
      <path
         id="east-light"
         d="M 100,65 H 35 V 35 h 65 z"
         style="opacity:1;vector-effect:none;fill:#ffe680;fill-opacity:1;stroke:none;stroke-width:1.17084372;stroke-linecap:round;stroke-linejoin:round;stroke-miterlimit:4.76923084;stroke-dasharray:none;stroke-dashoffset:0;stroke-opacity:1;paint-order:markers fill stroke" />
    </g>
    <g
       id="south"
       style="display:inline">
      <path
         id="south-wall"
         d="M 25,100 V 25 h 50 v 75 z"
         style="opacity:1;vector-effect:none;fill:#000000;fill-opacity:1;stroke:none;stroke-width:1.62366807;stroke-linecap:round;stroke-linejoin:round;stroke-miterlimit:4.76923084;stroke-dasharray:none;stroke-dashoffset:0;stroke-opacity:1;paint-order:markers fill stroke" />
      <path
         id="south-light"
         d="M 35,100 V 35 h 30 v 65 z"
         style="opacity:1;vector-effect:none;fill:#ffe680;fill-opacity:1;stroke:none;stroke-width:1.17084372;stroke-linecap:round;stroke-linejoin:round;stroke-miterlimit:4.76923084;stroke-dasharray:none;stroke-dashoffset:0;stroke-opacity:1;paint-order:markers fill stroke" />
    </g>
    <path
       id="room-wall"
       d="M 5,5 H 95 V 95 H 5 Z"
       style="fill:#280b0b;fill-opacity:1;stroke:none;stroke-width:1.28571427px;stroke-linecap:butt;stroke-linejoin:miter;stroke-opacity:1" />
    <path
       style="fill:#ffe680;fill-opacity:1;stroke:none;stroke-width:1px;stroke-linecap:butt;stroke-linejoin:miter;stroke-opacity:1"
       d="M 15,15 H 85 V 85 H 15 Z"
       id="room-light" />
  </g>
  <g
     transform="translate(66.670067,64.649762)"
     class="fight-mob-monster"
     id="g843" />
  <image
     xlink:href="../src/assets/chest-closed.png"
     width="62.779438"
     height="37.412838"
     preserveAspectRatio="none"
     id="image1007"
     x="137.30321"
     y="63.318237" />
  <g
     transform="translate(-11.951067,98.825241)"
     id="exit">
    <path
       style="opacity:1;vector-effect:none;fill:#161313;fill-opacity:1;stroke:none;stroke-width:6.29921293;stroke-linecap:round;stroke-linejoin:round;stroke-miterlimit:4;stroke-dasharray:none;stroke-dashoffset:0;stroke-opacity:1;paint-order:markers fill stroke"
       d="m 50.357143,12.5 a 25,25 0 0 0 -25,25 25,25 0 0 0 0.283203,3.582031 c -0.180231,0.533355 -0.283203,1.103504 -0.283203,1.699219 v 39.4375 c 0,2.925711 2.355539,5.28125 5.28125,5.28125 h 39.4375 c 2.925711,0 5.28125,-2.355539 5.28125,-5.28125 v -39.4375 c 0,-0.600723 -0.103964,-1.17571 -0.287109,-1.712891 A 25,25 0 0 0 75.357143,37.5 a 25,25 0 0 0 -25,-25 z"
       id="rect844" />
  </g>
  <g
     transform="translate(105.71429,89.285714)"
     id="hits">
    <circle
       r="6.1607141"
       cy="57.589287"
       cx="67.946426"
       id="path16"
       style="opacity:1;vector-effect:none;fill:#880000;fill-opacity:1;stroke:none;stroke-width:5.6692915;stroke-linecap:round;stroke-linejoin:round;stroke-miterlimit:4;stroke-dasharray:none;stroke-dashoffset:0;stroke-opacity:1;paint-order:markers fill stroke"
       class="fall-in-item" />
    <text
       id="text20"
       y="61.428574"
       x="68.087326"
       style="font-style:normal;font-variant:normal;font-weight:normal;font-stretch:normal;font-size:10.3057642px;line-height:1.25;font-family:sans-serif;-inkscape-font-specification:'sans-serif, Normal';font-variant-ligatures:normal;font-variant-caps:normal;font-variant-numeric:normal;font-feature-settings:normal;text-align:center;letter-spacing:0px;word-spacing:0px;writing-mode:lr-tb;text-anchor:middle;fill:#ffffff;fill-opacity:1;stroke:none;stroke-width:0.38646615"
       xml:space="preserve"
       class="fall-in-item"><tspan
         style="stroke-width:0.38646615"
         y="61.428574"
         x="68.087326"
         id="tspan18">{{life}}</tspan></text>
  </g>
  <g
     transform="translate(105.71429,89.285714)"
     id="action">
    <rect
       ry="4.7529593"
       y="85.535713"
       x="22.857143"
       height="10.178572"
       width="54.285713"
       id="rect68"
       style="opacity:0.6;vector-effect:none;fill:#000000;fill-opacity:1;stroke:none;stroke-width:5.6692915;stroke-linecap:round;stroke-linejoin:round;stroke-miterlimit:4;stroke-dasharray:none;stroke-dashoffset:0;stroke-opacity:1;paint-order:markers fill stroke"
       class="fall-in-item" />
    <text
       id="text26-3"
       y="94.449402"
       x="50.1409"
       style="font-style:normal;font-variant:normal;font-weight:normal;font-stretch:normal;font-size:10.3057642px;line-height:1.25;font-family:sans-serif;-inkscape-font-specification:'sans-serif, Normal';font-variant-ligatures:normal;font-variant-caps:normal;font-variant-numeric:normal;font-feature-settings:normal;text-align:center;letter-spacing:0px;word-spacing:0px;writing-mode:lr-tb;text-anchor:middle;fill:#ffffff;fill-opacity:1;stroke:none;stroke-width:0.38646615"
       xml:space="preserve"
       class="fall-in-item"><tspan
         style="stroke-width:0.38646615"
         y="94.449402"
         x="50.1409"
         id="tspan24-6">{{action.action}}</tspan></text>
  </g>
  <g
     transform="translate(85.357889,-40.406102)"
     id="win">
    <circle
       r="18.839285"
       cy="37.142857"
       cx="50"
       id="path936"
       style="opacity:0.6;vector-effect:none;fill:#000000;fill-opacity:1;stroke:none;stroke-width:5.6692915;stroke-linecap:round;stroke-linejoin:round;stroke-miterlimit:4;stroke-dasharray:none;stroke-dashoffset:0;stroke-opacity:1;paint-order:markers fill stroke" />
    <text
       xml:space="preserve"
       style="font-style:normal;font-variant:normal;font-weight:normal;font-stretch:normal;font-size:10.3057642px;line-height:1.25;font-family:sans-serif;-inkscape-font-specification:'sans-serif, Normal';font-variant-ligatures:normal;font-variant-caps:normal;font-variant-numeric:normal;font-feature-settings:normal;text-align:center;letter-spacing:0px;word-spacing:0px;writing-mode:lr-tb;text-anchor:middle;fill:#ffffff;fill-opacity:1;stroke:none;stroke-width:0.38646615"
       x="50.13335"
       y="40.984875"
       id="text26-3-7"><tspan
         id="tspan24-6-5"
         x="50.13335"
         y="40.984875"
         style="stroke-width:0.38646615">WIN</tspan></text>
  </g>
  <g
     transform="translate(72.225906,9.5964491)"
     id="g865"><circle
   r="18.839285"
   cy="37.142857"
   cx="50"
   id="circle861"
   style="opacity:0.6;vector-effect:none;fill:#000000;fill-opacity:1;stroke:none;stroke-width:5.6692915;stroke-linecap:round;stroke-linejoin:round;stroke-miterlimit:4;stroke-dasharray:none;stroke-dashoffset:0;stroke-opacity:1;paint-order:markers fill stroke" />




        text
            id=&quot;text26-3-7&quot;
            y=&quot;40.984875&quot;
            x=&quot;50.13335&quot;
            style=&quot;font-style:normal;font-variant:normal;font-weight:normal;font-stretch:normal;font-size:10.3057642px;line-height:1.25;font-family:sans-serif;-inkscape-font-specification:'sans-serif, Normal';font-variant-ligatures:normal;font-variant-caps:normal;font-variant-numeric:normal;font-feature-settings:normal;text-align:center;letter-spacing:0px;word-spacing:0px;writing-mode:lr-tb;text-anchor:middle;fill:#ffffff;fill-opacity:1;stroke:none;stroke-width:0.38646615&quot;
            xml:space=&quot;preserve&quot;&gt;<tspan
   id="tspan863"
   x="50.13335"
   y="40.984875"
   style="stroke-width:0.38646615">EXIT!</tspan>
</g>
  <path
     id="path861"
     d="m 97.857143,156.78571 v -20.35714 l 38.571427,-4.28571 v 19.64285 z"
     style="fill:#a05a2c;stroke:#000000;stroke-width:1px;stroke-linecap:butt;stroke-linejoin:miter;stroke-opacity:1" />
  <path
     style="fill:#a05a2c;stroke:#000000;stroke-width:1px;stroke-linecap:butt;stroke-linejoin:miter;stroke-opacity:1"
     d="M 97.857143,156.78571 V 136.42857 L 78.92857,133.57143 v 19.64285 z"
     id="path863" />
  <path
     style="fill:#a05a2c;stroke:#000000;stroke-width:1px;stroke-linecap:butt;stroke-linejoin:miter;stroke-opacity:1"
     d="m 136.42857,132.14286 -38.571427,4.28571 c 0,-2.90812 -14.958385,-10.27758 -13.727285,-11.85819 1.23264,-1.58258 38.298762,-4.51753 40.140942,-4.8354 5.43299,-0.93746 12.15777,3.48137 12.15777,12.40788 z"
     id="path867" />
  <path
     id="path865"
     d="M 97.857143,136.42857 78.92857,133.57143 c 0,-14.40727 18.928573,-12.11907 18.928573,2.85714 z"
     style="fill:#a05a2c;stroke:#000000;stroke-width:1px;stroke-linecap:butt;stroke-linejoin:miter;stroke-opacity:1" />
  <g
     transform="translate(-269.28571,-100)"
     id="g994">
    <path
       style="fill:#a05a2c;stroke:#000000;stroke-width:1;stroke-linecap:butt;stroke-linejoin:miter;stroke-miterlimit:6;stroke-dasharray:none;stroke-opacity:1"
       d="M 28.74167,75.610578 H 70.570497 L 75.060592,47.724699 24.960544,45.125168 Z"
       id="path882" />
    <path
       id="path884"
       d="m 29.686961,31.418542 41.119858,1.890582 4.253773,14.415575 -50.100048,-2.599531 z"
       style="fill:#a05a2c;stroke:#000000;stroke-width:1;stroke-linecap:butt;stroke-linejoin:miter;stroke-miterlimit:6;stroke-dasharray:none;stroke-opacity:1" />
  </g>
  <g
     transform="translate(-269.28571,-100)"
     id="g998">
    <rect
       style="opacity:1;vector-effect:none;fill:#808080;fill-opacity:1;stroke:#000000;stroke-width:1;stroke-linecap:round;stroke-linejoin:round;stroke-miterlimit:6;stroke-dasharray:none;stroke-dashoffset:0;stroke-opacity:1;paint-order:markers fill stroke"
       id="rect869"
       width="17.713043"
       height="17.713043"
       x="42.535427"
       y="41.789783"
       ry="0.54027086" />
    <path
       style="opacity:1;vector-effect:none;fill:#000000;fill-opacity:1;stroke:none;stroke-width:2.07480025;stroke-linecap:round;stroke-linejoin:round;stroke-miterlimit:10;stroke-dasharray:none;stroke-dashoffset:0;stroke-opacity:1;paint-order:markers fill stroke"
       d="m 51.356093,43.914226 a 3.4048544,3.4048544 0 0 0 -3.405615,3.405616 3.4048544,3.4048544 0 0 0 2.106168,3.14616 l -1.371409,6.434016 5.356967,0.492747 -0.972411,-7.13389 a 3.4048544,3.4048544 0 0 0 1.691897,-2.939033 3.4048544,3.4048544 0 0 0 -3.405597,-3.405616 z"
       id="path871" />
  </g>
  <g
     transform="translate(-137.85714,92.857143)"
     id="door">
    <path
       style="opacity:1;vector-effect:none;fill:#999999;fill-opacity:1;stroke:#000000;stroke-width:1;stroke-linecap:round;stroke-linejoin:round;stroke-miterlimit:4;stroke-dasharray:none;stroke-dashoffset:0;stroke-opacity:1;paint-order:markers fill stroke"
       d="m 49.94102,6.1215263 a 25.327515,25.327515 0 0 0 -25.325432,25.3254317 25.327515,25.327515 0 0 0 0.138511,2.415418 l -0.03159,-0.0024 4.779804,57.573931 41.545665,2.44457 3.817527,-57.860664 -0.02916,-0.0024 A 25.327515,25.327515 0 0 0 75.268882,31.446958 25.327515,25.327515 0 0 0 49.94102,6.1215263 Z"
       id="path1075" />
    <path
       style="fill:#808080;stroke:#000000;stroke-width:1;stroke-linecap:butt;stroke-linejoin:miter;stroke-miterlimit:4;stroke-dasharray:none;stroke-opacity:1"
       d="m 23.581411,45.512328 -2.236012,-6.052453 57.448676,0.307938 -1.110856,7.442735 z"
       id="path1082" />
    <path
       id="path1084"
       d="m 77.636873,70.863397 -1.338633,-5.86887 -53.894483,0.32447 1.137817,7.43865 z"
       style="fill:#808080;stroke:#000000;stroke-width:1;stroke-linecap:butt;stroke-linejoin:miter;stroke-miterlimit:4;stroke-dasharray:none;stroke-opacity:1" />
    <path
       id="path871-3"
       d="m 65.07132,49.281212 a 3.4048544,3.4048544 0 0 1 3.405615,3.405614 3.4048544,3.4048544 0 0 1 -2.106168,3.146161 l 1.371409,6.43402 -5.356966,0.49275 0.97241,-7.13389 a 3.4048544,3.4048544 0 0 1 -1.691897,-2.939041 3.4048544,3.4048544 0 0 1 3.405597,-3.405614 z"
       style="opacity:1;vector-effect:none;fill:#000000;fill-opacity:1;stroke:none;stroke-width:2.07480025;stroke-linecap:round;stroke-linejoin:round;stroke-miterlimit:10;stroke-dasharray:none;stroke-dashoffset:0;stroke-opacity:1;paint-order:markers fill stroke" />
  </g>
</svg>
