<?xml version="1.0" encoding="UTF-8" standalone="no"?>
<!-- Created with Inkscape (http://www.inkscape.org/) -->

<svg
   xmlns:dc="http://purl.org/dc/elements/1.1/"
   xmlns:cc="http://creativecommons.org/ns#"
   xmlns:rdf="http://www.w3.org/1999/02/22-rdf-syntax-ns#"
   xmlns:svg="http://www.w3.org/2000/svg"
   xmlns="http://www.w3.org/2000/svg"
   xmlns:sodipodi="http://sodipodi.sourceforge.net/DTD/sodipodi-0.dtd"
   xmlns:inkscape="http://www.inkscape.org/namespaces/inkscape"
   width="100"
   height="100"
   viewBox="0 0 100 100"
   version="1.1"
   id="svg932"
   inkscape:version="0.92.3 (2405546, 2018-03-11)"
   sodipodi:docname="deep-of-doom.svg">
  <defs
     id="defs926" />
  <sodipodi:namedview
     id="base"
     pagecolor="#ffffff"
     bordercolor="#666666"
     borderopacity="1.0"
     inkscape:pageopacity="0.0"
     inkscape:pageshadow="2"
     inkscape:zoom="1.979899"
     inkscape:cx="-43.533366"
     inkscape:cy="5.6733425"
     inkscape:document-units="px"
     inkscape:current-layer="layer1"
     showgrid="false"
     units="px"
     inkscape:window-width="1853"
     inkscape:window-height="1025"
     inkscape:window-x="67"
     inkscape:window-y="27"
     inkscape:window-maximized="1" />
  <metadata
     id="metadata929">
    <rdf:RDF>
      <cc:Work
         rdf:about="">
        <dc:format>image/svg+xml</dc:format>
        <dc:type
           rdf:resource="http://purl.org/dc/dcmitype/StillImage" />
        <dc:title></dc:title>
      </cc:Work>
    </rdf:RDF>
  </metadata>
  <g
     inkscape:label="Master"
     inkscape:groupmode="layer"
     id="layer1"
     style="display:inline">
    <g
       style="display:inline"
       id="staff"
       transform="matrix(5,0,0,5,25.758883,121.47085)">
      <path
         inkscape:connector-curvature="0"
         style="display:inline;opacity:1;vector-effect:none;fill:#cccccc;fill-opacity:1;stroke:none;stroke-width:1.49426341;stroke-linecap:round;stroke-linejoin:round;stroke-miterlimit:4;stroke-dasharray:none;stroke-dashoffset:0;stroke-opacity:1;paint-order:markers fill stroke"
         d="m 2.452832,0 h 15.094339 c 1.358868,0 2.452831,1.09396 2.452831,2.45283 V 17.54717 C 20.000002,18.90604 18.906039,20 17.547171,20 H 2.452832 C 1.093964,20 2e-6,18.90604 2e-6,17.54717 V 2.45283 C 2e-6,1.09396 1.093964,0 2.452832,0 Z"
         id="use1027" />
      <path
         style="opacity:1;vector-effect:none;fill:#cc00ff;fill-opacity:1;stroke:#800000;stroke-width:0.8501454;stroke-linecap:round;stroke-linejoin:round;stroke-miterlimit:4;stroke-dasharray:none;stroke-dashoffset:0;stroke-opacity:1;paint-order:markers fill stroke"
         id="path1029"
         d="m 18.292169,14.787486 -3.570851,-0.06617 0.06617,3.570851 L 11.728122,16.449441 10,19.574972 8.2718775,16.449441 5.2125139,18.292169 5.2786817,14.721318 1.7078309,14.787486 3.5505593,11.728122 0.42502785,10 3.5505593,8.2718775 1.7078309,5.2125139 5.2786817,5.2786817 5.212514,1.7078309 8.2718776,3.5505593 10,0.42502785 11.728122,3.5505593 14.787486,1.7078309 14.721318,5.2786817 18.292169,5.212514 16.449441,8.2718776 19.574972,10 16.449441,11.728122 Z"
         inkscape:connector-curvature="0" />
    </g>
    <g
       id="sword"
       transform="translate(-113.13708,101.01525)">
      <path
         inkscape:connector-curvature="0"
         style="display:inline;opacity:1;vector-effect:none;fill:#cccccc;fill-opacity:1;stroke:none;stroke-width:7.47131729;stroke-linecap:round;stroke-linejoin:round;stroke-miterlimit:4;stroke-dasharray:none;stroke-dashoffset:0;stroke-opacity:1;paint-order:markers fill stroke"
         d="M 12.264154,0 H 87.735849 C 94.530189,0 100,5.4698 100,12.26415 v 75.4717 C 100,94.5302 94.530189,100 87.735849,100 H 12.264154 C 5.4698138,100 3.8069655e-6,94.5302 3.8069655e-6,87.73585 V 12.26415 C 3.8069655e-6,5.4698 5.4698138,0 12.264154,0 Z"
         id="use821" />
      <path
         style="opacity:1;vector-effect:none;fill:#ffff00;fill-opacity:1;stroke:#800000;stroke-width:4.25072718;stroke-linecap:round;stroke-linejoin:round;stroke-miterlimit:4;stroke-dasharray:none;stroke-dashoffset:0;stroke-opacity:1;paint-order:markers fill stroke"
         id="path823"
         d="M 91.460839,73.93743 73.606584,73.60658 73.937434,91.460835 58.640604,82.247205 49.999994,97.87486 41.359381,82.247205 26.062563,91.460845 26.393402,73.60659 8.5391483,73.93743 17.75279,58.64061 2.1251331,50 17.75279,41.359388 8.5391483,26.06257 26.393402,26.393408 26.062564,8.5391545 41.359382,17.752797 49.999994,2.1251393 58.640604,17.752797 73.937424,8.5391545 73.606584,26.393408 91.460839,26.06257 82.247199,41.359388 97.874854,50 82.247199,58.64061 Z"
         inkscape:connector-curvature="0" />
    </g>
    <g
       style="display:inline"
       id="hit"
       transform="matrix(5,0,0,5,151.27034,77.781746)">
      <path
         inkscape:connector-curvature="0"
         style="display:inline;opacity:1;vector-effect:none;fill:#cccccc;fill-opacity:1;stroke:none;stroke-width:1.49426341;stroke-linecap:round;stroke-linejoin:round;stroke-miterlimit:4;stroke-dasharray:none;stroke-dashoffset:0;stroke-opacity:1;paint-order:markers fill stroke"
         d="m 2.452832,0 h 15.094339 c 1.358868,0 2.452831,1.09396 2.452831,2.45283 V 17.54717 C 20.000002,18.90604 18.906039,20 17.547171,20 H 2.452832 C 1.093964,20 2e-6,18.90604 2e-6,17.54717 V 2.45283 C 2e-6,1.09396 1.093964,0 2.452832,0 Z"
         id="use826" />
      <path
         style="opacity:1;vector-effect:none;fill:#ff0000;fill-opacity:1;stroke:#800000;stroke-width:0.8501454;stroke-linecap:round;stroke-linejoin:round;stroke-miterlimit:4;stroke-dasharray:none;stroke-dashoffset:0;stroke-opacity:1;paint-order:markers fill stroke"
         id="path828"
         d="m 18.292169,14.787486 -3.570851,-0.06617 0.06617,3.570851 L 11.728122,16.449441 10,19.574972 8.2718775,16.449441 5.2125139,18.292169 5.2786817,14.721318 1.7078309,14.787486 3.5505593,11.728122 0.42502785,10 3.5505593,8.2718775 1.7078309,5.2125139 5.2786817,5.2786817 5.212514,1.7078309 8.2718776,3.5505593 10,0.42502785 11.728122,3.5505593 14.787486,1.7078309 14.721318,5.2786817 18.292169,5.212514 16.449441,8.2718776 19.574972,10 16.449441,11.728122 Z"
         inkscape:connector-curvature="0" />
    </g>
    <g
       style="display:inline"
       id="life"
       transform="matrix(5,0,0,5,132.83505,-37.628182)">
      <path
         inkscape:connector-curvature="0"
         style="display:inline;opacity:1;vector-effect:none;fill:#cccccc;fill-opacity:1;stroke:none;stroke-width:1.49426341;stroke-linecap:round;stroke-linejoin:round;stroke-miterlimit:4;stroke-dasharray:none;stroke-dashoffset:0;stroke-opacity:1;paint-order:markers fill stroke"
         d="m 2.452832,0 h 15.094339 c 1.358868,0 2.452831,1.09396 2.452831,2.45283 V 17.54717 C 20.000002,18.90604 18.906039,20 17.547171,20 H 2.452832 C 1.093964,20 2e-6,18.90604 2e-6,17.54717 V 2.45283 C 2e-6,1.09396 1.093964,0 2.452832,0 Z"
         id="use1031" />
      <path
         style="opacity:1;vector-effect:none;fill:#ffff00;fill-opacity:1;stroke:none;stroke-width:0.88788283;stroke-linecap:round;stroke-linejoin:round;stroke-miterlimit:4;stroke-dasharray:none;stroke-dashoffset:0;stroke-opacity:1;paint-order:markers fill stroke"
         id="path881"
         d="M 18.660254,15 14.930895,14.930895 15,18.660254 11.804833,16.735727 10,20 8.1951672,16.735727 5,18.660254 5.0691053,14.930895 1.3397459,15 3.2642726,11.804833 0,10 3.2642726,8.1951672 1.339746,5 5.0691054,5.0691053 5,1.3397459 8.1951673,3.2642726 10,0 11.804833,3.2642726 15,1.339746 14.930895,5.0691054 18.660254,5 16.735727,8.1951673 20,10 16.735727,11.804833 Z"
         inkscape:connector-curvature="0" />
      <path
         id="path902"
         d="m 2.411794,8.137117 a 3.9229259,3.9229259 0 0 0 1.43589,5.358816 l 6.79471,3.922926 3.92292,-6.794706 a 3.9229259,3.9229259 0 0 0 -1.43589,-5.358816 3.9229259,3.9229259 0 0 0 -5.35881,1.43589 3.9229259,3.9229259 0 0 0 -5.35882,1.43589 z"
         style="opacity:1;vector-effect:none;fill:#ff0000;fill-opacity:1;stroke:none;stroke-width:0.48282164;stroke-linecap:round;stroke-linejoin:round;stroke-miterlimit:4;stroke-dasharray:none;stroke-dashoffset:0;stroke-opacity:1;paint-order:markers fill stroke"
         inkscape:connector-curvature="0" />
    </g>
    <g
       style="display:inline"
       id="gold"
       transform="matrix(5,0,0,5,-122.98608,-33.84011)">
      <path
         inkscape:connector-curvature="0"
         style="display:inline;opacity:1;vector-effect:none;fill:#cccccc;fill-opacity:1;stroke:none;stroke-width:1.49426341;stroke-linecap:round;stroke-linejoin:round;stroke-miterlimit:4;stroke-dasharray:none;stroke-dashoffset:0;stroke-opacity:1;paint-order:markers fill stroke"
         d="m 2.452832,0 h 15.094339 c 1.358868,0 2.452831,1.09396 2.452831,2.45283 V 17.54717 C 20.000002,18.90604 18.906039,20 17.547171,20 H 2.452832 C 1.093964,20 2e-6,18.90604 2e-6,17.54717 V 2.45283 C 2e-6,1.09396 1.093964,0 2.452832,0 Z"
         id="use1019" />
      <circle
         style="opacity:1;vector-effect:none;fill:#ffd42a;fill-opacity:1;stroke:none;stroke-width:1.18588233;stroke-linecap:round;stroke-linejoin:round;stroke-miterlimit:4;stroke-dasharray:none;stroke-dashoffset:0;stroke-opacity:1;paint-order:markers fill stroke"
         id="circle1139"
         cx="10"
         cy="10"
         r="9" />
      <path
         style="color:#000000;font-style:normal;font-variant:normal;font-weight:normal;font-stretch:normal;font-size:medium;line-height:normal;font-family:sans-serif;font-variant-ligatures:normal;font-variant-position:normal;font-variant-caps:normal;font-variant-numeric:normal;font-variant-alternates:normal;font-feature-settings:normal;text-indent:0;text-align:start;text-decoration:none;text-decoration-line:none;text-decoration-style:solid;text-decoration-color:#000000;letter-spacing:normal;word-spacing:normal;text-transform:none;writing-mode:lr-tb;direction:ltr;text-orientation:mixed;dominant-baseline:auto;baseline-shift:baseline;text-anchor:start;white-space:normal;shape-padding:0;clip-rule:nonzero;display:inline;overflow:visible;visibility:visible;opacity:1;isolation:auto;mix-blend-mode:normal;color-interpolation:sRGB;color-interpolation-filters:linearRGB;solid-color:#000000;solid-opacity:1;vector-effect:none;fill:#aa8800;fill-opacity:1;fill-rule:nonzero;stroke:none;stroke-width:1.00897074;stroke-linecap:round;stroke-linejoin:round;stroke-miterlimit:4;stroke-dasharray:none;stroke-dashoffset:0;stroke-opacity:1;paint-order:markers fill stroke;color-rendering:auto;image-rendering:auto;shape-rendering:auto;text-rendering:auto;enable-background:accumulate"
         d="m 10.000555,1.837887 c -4.50169,0 -8.16211,3.660418 -8.16211,8.162109 0,4.501691 3.66042,8.162109 8.16211,8.162109 4.50169,0 8.16211,-3.660418 8.16211,-8.162109 0,-4.501691 -3.66042,-8.162109 -8.16211,-8.162109 z m 0,1.009765 c 3.95641,0 7.15235,3.195941 7.15235,7.152344 0,3.956403 -3.19594,7.152344 -7.15235,7.152344 -3.9564,0 -7.15429,-3.195941 -7.15429,-7.152344 0,-3.956403 3.19789,-7.152344 7.15429,-7.152344 z"
         id="circle991"
         inkscape:connector-curvature="0" />
      <g
         aria-label="1"
         style="font-style:normal;font-variant:normal;font-weight:normal;font-stretch:normal;font-size:18.59233475px;line-height:1.25;font-family:'AR JULIAN';-inkscape-font-specification:'AR JULIAN, Normal';font-variant-ligatures:normal;font-variant-caps:normal;font-variant-numeric:normal;font-feature-settings:normal;text-align:start;letter-spacing:0px;word-spacing:0px;writing-mode:lr-tb;text-anchor:start;fill:#aa8800;fill-opacity:1;stroke:none;stroke-width:0.46480837"
         id="text1007"
         transform="matrix(0.9,0,0,0.9,-93.017856,-30.500004)">
        <path
           d="m 115.88324,49.158811 q 0,0.508384 0.5447,0.68995 0.2905,0.09078 0.49023,0.217879 0.21788,0.127096 0.21788,0.272348 0,0.490228 -0.45392,0.490228 h -4.39389 q -0.30866,0 -0.36313,-0.108939 -0.0545,-0.127096 -0.0545,-0.381289 0,-0.145252 0.23603,-0.272348 0.23604,-0.127096 0.52654,-0.217879 0.56286,-0.181566 0.56286,-0.68995 v -8.424652 q -0.34498,0.127096 -0.59917,0.181566 -0.25419,0.03631 -0.59917,0.127096 -0.21787,0.05447 -0.39944,-0.09078 -0.16341,-0.163409 -0.21788,-0.381288 -0.0545,-0.217879 0.0363,-0.435758 0.0908,-0.236035 0.41761,-0.326818 0.58101,-0.163409 1.03492,-0.308662 0.45391,-0.145253 0.81705,-0.272349 0.38128,-0.145252 0.7081,-0.254192 0.32682,-0.127096 0.6718,-0.217879 0.0726,-0.01816 0.21787,-0.01816 0.14526,-0.01816 0.27235,0.03631 0.1271,0.03631 0.21788,0.181566 0.10894,0.127096 0.10894,0.399444 z"
           style="fill:#aa8800;stroke-width:0.46480837"
           id="path1009"
           inkscape:connector-curvature="0" />
      </g>
    </g>
    <g
       inkscape:label="#g948"
       id="manacounter">
      <path
         style="display:inline;opacity:1;vector-effect:none;fill:#9955ff;fill-opacity:1;stroke:none;stroke-width:5.14259481;stroke-linecap:round;stroke-linejoin:round;stroke-miterlimit:4;stroke-dasharray:none;stroke-dashoffset:0;stroke-opacity:1;paint-order:markers fill stroke"
         d="M 48.136562,-8.9054631e-5 A 50,50 45 0 0 1.4041964,37.019616 50,50 45 0 0 18.08056,88.633541 20.785423,20.785423 0 0 1 18.642969,85.561132 20.785423,20.785423 0 0 1 44.099482,70.863807 20.785423,20.785423 0 0 1 58.796807,96.32032 20.785423,20.785423 0 0 1 57.746047,99.2457 50,50 45 0 0 97.996779,62.901521 50,50 45 0 0 76.015438,7.4963196 14.471971,14.471971 0 0 1 58.569589,16.86063 14.471971,14.471971 0 0 1 48.136562,-8.9054631e-5 Z"
         id="path1410"
         inkscape:connector-curvature="0" />
      <text
         transform="rotate(15)"
         xml:space="preserve"
         style="font-style:normal;font-variant:normal;font-weight:normal;font-stretch:normal;font-size:64px;line-height:1.25;font-family:'AR JULIAN';-inkscape-font-specification:'AR JULIAN, Normal';font-variant-ligatures:normal;font-variant-caps:normal;font-variant-numeric:normal;font-feature-settings:normal;text-align:center;letter-spacing:0px;word-spacing:0px;writing-mode:lr-tb;text-anchor:middle;fill:#ffffff;fill-opacity:1;stroke:#000000;stroke-width:2;stroke-miterlimit:4;stroke-dasharray:none"
         x="59.691658"
         y="49.673241"
         id="text1289"><tspan
           sodipodi:role="line"
           id="tspan1287"
           x="59.691658"
           y="49.673241">99</tspan></text>
      <text
         id="text1293"
         y="96.46447"
         x="98.920479"
         style="font-style:normal;font-variant:normal;font-weight:normal;font-stretch:normal;font-size:42.66666794px;line-height:1.25;font-family:'AR JULIAN';-inkscape-font-specification:'AR JULIAN, Normal';font-variant-ligatures:normal;font-variant-caps:normal;font-variant-numeric:normal;font-feature-settings:normal;text-align:end;letter-spacing:0px;word-spacing:0px;writing-mode:lr-tb;text-anchor:end;fill:#ffffff;fill-opacity:1;stroke:#000000;stroke-width:2;stroke-miterlimit:4;stroke-dasharray:none"
         xml:space="preserve"><tspan
           y="96.46447"
           x="98.920479"
           id="tspan1291"
           sodipodi:role="line">99</tspan></text>
    </g>
    <g
       id="lifecounter"
       inkscape:label="#g948"
       transform="translate(-116.16754,217.1828)">
      <path
         inkscape:connector-curvature="0"
         style="display:inline;opacity:1;vector-effect:none;fill:#d40000;fill-opacity:1;stroke:none;stroke-width:3.60484076;stroke-linecap:round;stroke-linejoin:round;stroke-miterlimit:4;stroke-dasharray:none;stroke-dashoffset:0;stroke-opacity:1;paint-order:markers fill stroke"
         d="M 15.457361,4.4301531 A 29.28933,29.28933 0 0 0 4.7367206,44.440118 L 34.026072,95.170734 84.756631,65.881393 A 29.28933,29.28933 0 0 0 95.477271,25.871428 29.28933,29.28933 0 0 0 55.467352,15.150809 29.28933,29.28933 0 0 0 15.457361,4.4301531 Z"
         id="path902-3" />
      <text
         id="text937"
         y="50.26086"
         x="57.498627"
         style="font-style:normal;font-variant:normal;font-weight:normal;font-stretch:normal;font-size:64px;line-height:1.25;font-family:'AR JULIAN';-inkscape-font-specification:'AR JULIAN, Normal';font-variant-ligatures:normal;font-variant-caps:normal;font-variant-numeric:normal;font-feature-settings:normal;text-align:center;letter-spacing:0px;word-spacing:0px;writing-mode:lr-tb;text-anchor:middle;fill:#ffffff;fill-opacity:1;stroke:#000000;stroke-width:2;stroke-miterlimit:4;stroke-dasharray:none"
         xml:space="preserve"
         transform="rotate(15)"><tspan
           y="50.26086"
           x="57.498627"
           id="tspan935"
           sodipodi:role="line">99</tspan></text>
      <text
         xml:space="preserve"
         style="font-style:normal;font-variant:normal;font-weight:normal;font-stretch:normal;font-size:42.66666794px;line-height:1.25;font-family:'AR JULIAN';-inkscape-font-specification:'AR JULIAN, Normal';font-variant-ligatures:normal;font-variant-caps:normal;font-variant-numeric:normal;font-feature-settings:normal;text-align:end;letter-spacing:0px;word-spacing:0px;writing-mode:lr-tb;text-anchor:end;fill:#ffffff;fill-opacity:1;stroke:#000000;stroke-width:2;stroke-miterlimit:4;stroke-dasharray:none"
         x="98.920479"
         y="96.46447"
         id="text941"><tspan
           sodipodi:role="line"
           id="tspan939"
           x="98.920479"
           y="96.46447">99</tspan></text>
    </g>
    <text
       id="text937-6"
       y="-49.669975"
       x="23.140388"
       style="font-style:normal;font-variant:normal;font-weight:normal;font-stretch:normal;font-size:64px;line-height:1.25;font-family:'AR JULIAN';-inkscape-font-specification:'AR JULIAN, Normal';font-variant-ligatures:normal;font-variant-caps:normal;font-variant-numeric:normal;font-feature-settings:normal;text-align:center;letter-spacing:0px;word-spacing:0px;writing-mode:lr-tb;text-anchor:middle;display:inline;fill:#ffffff;fill-opacity:1;stroke:#000000;stroke-width:2;stroke-miterlimit:4;stroke-dasharray:none"
       xml:space="preserve"
       transform="rotate(15)"><tspan
         y="-49.669975"
         x="23.140388"
         id="tspan935-4"
         sodipodi:role="line">99</tspan></text>
  </g>
  <g
     inkscape:groupmode="layer"
     id="layer4"
     inkscape:label="mob exit"
     style="display:none">
    <g
       style="display:inline"
       id="door"
       inkscape:label="#g1115"
       transform="translate(-1.2601387,-0.25508939)">
      <path
         inkscape:connector-curvature="0"
         id="path1075"
         d="m 49.94102,6.1215263 a 25.327515,25.327515 0 0 0 -25.325432,25.3254317 25.327515,25.327515 0 0 0 0.138511,2.415418 l -0.03159,-0.0024 4.779804,57.573931 41.545665,2.44457 3.817527,-57.860664 -0.02916,-0.0024 A 25.327515,25.327515 0 0 0 75.268882,31.446958 25.327515,25.327515 0 0 0 49.94102,6.1215263 Z"
         style="opacity:1;vector-effect:none;fill:#999999;fill-opacity:1;stroke:#000000;stroke-width:1;stroke-linecap:round;stroke-linejoin:round;stroke-miterlimit:4;stroke-dasharray:none;stroke-dashoffset:0;stroke-opacity:1;paint-order:markers fill stroke" />
      <path
         sodipodi:nodetypes="ccccc"
         inkscape:connector-curvature="0"
         id="path1082"
         d="m 23.581411,45.512328 -2.236012,-6.052453 57.448676,0.307938 -1.110856,7.442735 z"
         style="fill:#808080;stroke:#000000;stroke-width:1;stroke-linecap:butt;stroke-linejoin:miter;stroke-miterlimit:4;stroke-dasharray:none;stroke-opacity:1" />
      <path
         sodipodi:nodetypes="ccccc"
         style="fill:#808080;stroke:#000000;stroke-width:1;stroke-linecap:butt;stroke-linejoin:miter;stroke-miterlimit:4;stroke-dasharray:none;stroke-opacity:1"
         d="m 77.636873,70.863397 -1.338633,-5.86887 -53.894483,0.32447 1.137817,7.43865 z"
         id="path1084"
         inkscape:connector-curvature="0" />
      <path
         style="opacity:1;vector-effect:none;fill:#000000;fill-opacity:1;stroke:none;stroke-width:2.07480025;stroke-linecap:round;stroke-linejoin:round;stroke-miterlimit:10;stroke-dasharray:none;stroke-dashoffset:0;stroke-opacity:1;paint-order:markers fill stroke"
         d="m 65.07132,49.281212 a 3.4048544,3.4048544 0 0 1 3.405615,3.405614 3.4048544,3.4048544 0 0 1 -2.106168,3.146161 l 1.371409,6.43402 -5.356966,0.49275 0.97241,-7.13389 a 3.4048544,3.4048544 0 0 1 -1.691897,-2.939041 3.4048544,3.4048544 0 0 1 3.405597,-3.405614 z"
         id="path871-3"
         inkscape:connector-curvature="0" />
    </g>
  </g>
  <g
     inkscape:groupmode="layer"
     id="layer5"
     inkscape:label="mob spider"
     style="display:none">
    <g
       transform="translate(-2.2149847,0.75637561)"
       style="display:inline"
       id="spider">
      <path
         style="color:#000000;font-style:normal;font-variant:normal;font-weight:normal;font-stretch:normal;font-size:medium;line-height:normal;font-family:sans-serif;font-variant-ligatures:normal;font-variant-position:normal;font-variant-caps:normal;font-variant-numeric:normal;font-variant-alternates:normal;font-feature-settings:normal;text-indent:0;text-align:start;text-decoration:none;text-decoration-line:none;text-decoration-style:solid;text-decoration-color:#000000;letter-spacing:normal;word-spacing:normal;text-transform:none;writing-mode:lr-tb;direction:ltr;text-orientation:mixed;dominant-baseline:auto;baseline-shift:baseline;text-anchor:start;white-space:normal;shape-padding:0;clip-rule:nonzero;display:inline;overflow:visible;visibility:visible;opacity:1;isolation:auto;mix-blend-mode:normal;color-interpolation:sRGB;color-interpolation-filters:linearRGB;solid-color:#000000;solid-opacity:1;vector-effect:none;fill:#ff0000;fill-opacity:1;fill-rule:nonzero;stroke:#000000;stroke-width:0.99999994;stroke-linecap:round;stroke-linejoin:round;stroke-miterlimit:4.76923084;stroke-dasharray:none;stroke-dashoffset:0;stroke-opacity:1;color-rendering:auto;image-rendering:auto;shape-rendering:auto;text-rendering:auto;enable-background:accumulate"
         d="m 33.641136,43.896388 a 1.2890333,1.2890333 0 0 0 -1.154972,0.71293 l -7.733431,15.466854 a 1.2890333,1.2890333 0 0 0 -0.122843,0.763269 l 2.025991,13.809407 a 1.2890333,1.2890333 0 1 0 2.550621,-0.373586 L 27.239916,60.866631 34.059027,47.2274 l 9.428134,7.965033 a 1.2890333,1.2890333 0 1 0 1.66349,-1.968606 L 34.470873,44.201496 a 1.2890333,1.2890333 0 0 0 -0.829737,-0.305108 z"
         id="path965"
         inkscape:connector-curvature="0" />
      <path
         style="color:#000000;font-style:normal;font-variant:normal;font-weight:normal;font-stretch:normal;font-size:medium;line-height:normal;font-family:sans-serif;font-variant-ligatures:normal;font-variant-position:normal;font-variant-caps:normal;font-variant-numeric:normal;font-variant-alternates:normal;font-feature-settings:normal;text-indent:0;text-align:start;text-decoration:none;text-decoration-line:none;text-decoration-style:solid;text-decoration-color:#000000;letter-spacing:normal;word-spacing:normal;text-transform:none;writing-mode:lr-tb;direction:ltr;text-orientation:mixed;dominant-baseline:auto;baseline-shift:baseline;text-anchor:start;white-space:normal;shape-padding:0;clip-rule:nonzero;display:inline;overflow:visible;visibility:visible;opacity:1;isolation:auto;mix-blend-mode:normal;color-interpolation:sRGB;color-interpolation-filters:linearRGB;solid-color:#000000;solid-opacity:1;vector-effect:none;fill:#ff0000;fill-opacity:1;fill-rule:nonzero;stroke:#000000;stroke-width:0.99999994;stroke-linecap:round;stroke-linejoin:round;stroke-miterlimit:4.76923084;stroke-dasharray:none;stroke-dashoffset:0;stroke-opacity:1;color-rendering:auto;image-rendering:auto;shape-rendering:auto;text-rendering:auto;enable-background:accumulate"
         d="m 34.787058,28.843401 a 1.2890333,1.2890333 0 0 0 -0.892164,0.391703 L 19.667596,43.91351 a 1.2890333,1.2890333 0 0 0 -0.362501,0.870009 l -0.337331,16.173739 a 1.2891919,1.2891919 0 1 0 2.57781,0.05438 l 0.326253,-15.668244 12.515465,-12.912209 5.751735,13.728848 a 1.2890333,1.2890333 0 1 0 2.37743,-0.995882 L 36.0095,29.633861 a 1.2890333,1.2890333 0 0 0 -1.222442,-0.79046 z"
         id="path967"
         inkscape:connector-curvature="0" />
      <path
         style="color:#000000;font-style:normal;font-variant:normal;font-weight:normal;font-stretch:normal;font-size:medium;line-height:normal;font-family:sans-serif;font-variant-ligatures:normal;font-variant-position:normal;font-variant-caps:normal;font-variant-numeric:normal;font-variant-alternates:normal;font-feature-settings:normal;text-indent:0;text-align:start;text-decoration:none;text-decoration-line:none;text-decoration-style:solid;text-decoration-color:#000000;letter-spacing:normal;word-spacing:normal;text-transform:none;writing-mode:lr-tb;direction:ltr;text-orientation:mixed;dominant-baseline:auto;baseline-shift:baseline;text-anchor:start;white-space:normal;shape-padding:0;clip-rule:nonzero;display:inline;overflow:visible;visibility:visible;opacity:1;isolation:auto;mix-blend-mode:normal;color-interpolation:sRGB;color-interpolation-filters:linearRGB;solid-color:#000000;solid-opacity:1;vector-effect:none;fill:#ff0000;fill-opacity:1;fill-rule:nonzero;stroke:#000000;stroke-width:0.99999994;stroke-linecap:round;stroke-linejoin:round;stroke-miterlimit:4.76923084;stroke-dasharray:none;stroke-dashoffset:0;stroke-opacity:1;color-rendering:auto;image-rendering:auto;shape-rendering:auto;text-rendering:auto;enable-background:accumulate"
         d="m 39.842986,15.066218 a 1.2890333,1.2890333 0 0 0 -0.297052,0.04735 l -19.659826,5.598681 a 1.2890333,1.2890333 0 0 0 -0.91028,0.982792 l -3.789182,18.616611 a 1.2890597,1.2890597 0 1 0 2.526453,0.513543 l 3.632095,-17.848299 17.446529,-4.96833 2.286794,19.971979 a 1.2892019,1.2892019 0 1 0 2.561699,-0.293027 l -2.461004,-21.48042 a 1.2890333,1.2890333 0 0 0 -1.336226,-1.14088 z"
         id="path969"
         inkscape:connector-curvature="0" />
      <path
         style="color:#000000;font-style:normal;font-variant:normal;font-weight:normal;font-stretch:normal;font-size:medium;line-height:normal;font-family:sans-serif;font-variant-ligatures:normal;font-variant-position:normal;font-variant-caps:normal;font-variant-numeric:normal;font-variant-alternates:normal;font-feature-settings:normal;text-indent:0;text-align:start;text-decoration:none;text-decoration-line:none;text-decoration-style:solid;text-decoration-color:#000000;letter-spacing:normal;word-spacing:normal;text-transform:none;writing-mode:lr-tb;direction:ltr;text-orientation:mixed;dominant-baseline:auto;baseline-shift:baseline;text-anchor:start;white-space:normal;shape-padding:0;clip-rule:nonzero;display:inline;overflow:visible;visibility:visible;opacity:1;isolation:auto;mix-blend-mode:normal;color-interpolation:sRGB;color-interpolation-filters:linearRGB;solid-color:#000000;solid-opacity:1;vector-effect:none;fill:#ff0000;fill-opacity:1;fill-rule:nonzero;stroke:#000000;stroke-width:0.99999994;stroke-linecap:round;stroke-linejoin:round;stroke-miterlimit:4.76923084;stroke-dasharray:none;stroke-dashoffset:0;stroke-opacity:1;color-rendering:auto;image-rendering:auto;shape-rendering:auto;text-rendering:auto;enable-background:accumulate"
         d="m 44.450819,57.334229 a 1.2890333,1.2890333 0 0 0 -0.340353,0.06545 l -8.972986,2.865796 a 1.2890333,1.2890333 0 0 0 -0.875051,0.996883 l -2.442871,13.442875 a 1.2890333,1.2890333 0 0 0 0.251737,1.022061 l 7.349776,9.427133 a 1.2892386,1.2892386 0 1 0 2.033045,-1.585961 l -6.995331,-8.970982 2.20121,-12.112676 8.234894,-2.63017 a 1.2890333,1.2890333 0 0 0 -0.44407,-2.520416 z"
         id="path971"
         inkscape:connector-curvature="0" />
      <path
         inkscape:connector-curvature="0"
         id="path1014"
         d="m 66.358912,43.159872 a 1.2890333,1.2890333 0 0 1 1.154979,0.71293 l 7.733426,15.466853 a 1.2890333,1.2890333 0 0 1 0.122849,0.76327 l -2.025997,13.809399 a 1.2890333,1.2890333 0 1 1 -2.55062,-0.373578 l 1.966586,-13.408631 -6.81911,-13.639231 -9.428134,7.965033 a 1.2890333,1.2890333 0 1 1 -1.663493,-1.968606 l 10.679781,-9.022332 a 1.2890333,1.2890333 0 0 1 0.829733,-0.305107 z"
         style="color:#000000;font-style:normal;font-variant:normal;font-weight:normal;font-stretch:normal;font-size:medium;line-height:normal;font-family:sans-serif;font-variant-ligatures:normal;font-variant-position:normal;font-variant-caps:normal;font-variant-numeric:normal;font-variant-alternates:normal;font-feature-settings:normal;text-indent:0;text-align:start;text-decoration:none;text-decoration-line:none;text-decoration-style:solid;text-decoration-color:#000000;letter-spacing:normal;word-spacing:normal;text-transform:none;writing-mode:lr-tb;direction:ltr;text-orientation:mixed;dominant-baseline:auto;baseline-shift:baseline;text-anchor:start;white-space:normal;shape-padding:0;clip-rule:nonzero;display:inline;overflow:visible;visibility:visible;opacity:1;isolation:auto;mix-blend-mode:normal;color-interpolation:sRGB;color-interpolation-filters:linearRGB;solid-color:#000000;solid-opacity:1;vector-effect:none;fill:#ff0000;fill-opacity:1;fill-rule:nonzero;stroke:#000000;stroke-width:0.99999994;stroke-linecap:round;stroke-linejoin:round;stroke-miterlimit:4.76923084;stroke-dasharray:none;stroke-dashoffset:0;stroke-opacity:1;color-rendering:auto;image-rendering:auto;shape-rendering:auto;text-rendering:auto;enable-background:accumulate" />
      <path
         inkscape:connector-curvature="0"
         id="path1016"
         d="m 65.212996,28.106885 a 1.2890333,1.2890333 0 0 1 0.892163,0.391703 l 14.22729,14.678406 a 1.2890333,1.2890333 0 0 1 0.362502,0.870009 l 0.337332,16.173739 a 1.2891913,1.2891913 0 1 1 -2.577809,0.05438 L 78.128222,44.60687 65.612757,31.694669 59.861021,45.423509 a 1.2890333,1.2890333 0 1 1 -2.377424,-0.995874 l 6.506953,-15.53029 a 1.2890333,1.2890333 0 0 1 1.222446,-0.79046 z"
         style="color:#000000;font-style:normal;font-variant:normal;font-weight:normal;font-stretch:normal;font-size:medium;line-height:normal;font-family:sans-serif;font-variant-ligatures:normal;font-variant-position:normal;font-variant-caps:normal;font-variant-numeric:normal;font-variant-alternates:normal;font-feature-settings:normal;text-indent:0;text-align:start;text-decoration:none;text-decoration-line:none;text-decoration-style:solid;text-decoration-color:#000000;letter-spacing:normal;word-spacing:normal;text-transform:none;writing-mode:lr-tb;direction:ltr;text-orientation:mixed;dominant-baseline:auto;baseline-shift:baseline;text-anchor:start;white-space:normal;shape-padding:0;clip-rule:nonzero;display:inline;overflow:visible;visibility:visible;opacity:1;isolation:auto;mix-blend-mode:normal;color-interpolation:sRGB;color-interpolation-filters:linearRGB;solid-color:#000000;solid-opacity:1;vector-effect:none;fill:#ff0000;fill-opacity:1;fill-rule:nonzero;stroke:#000000;stroke-width:0.99999994;stroke-linecap:round;stroke-linejoin:round;stroke-miterlimit:4.76923084;stroke-dasharray:none;stroke-dashoffset:0;stroke-opacity:1;color-rendering:auto;image-rendering:auto;shape-rendering:auto;text-rendering:auto;enable-background:accumulate" />
      <path
         inkscape:connector-curvature="0"
         id="path1018"
         d="m 60.157067,14.329702 a 1.2890333,1.2890333 0 0 1 0.297051,0.04735 l 19.659821,5.598681 a 1.2890333,1.2890333 0 0 1 0.910286,0.982792 l 3.789178,18.616611 a 1.2890597,1.2890597 0 1 1 -2.526454,0.513543 l -3.632091,-17.8483 -17.446529,-4.96833 -2.286798,19.971979 a 1.2892022,1.2892022 0 1 1 -2.561697,-0.293043 l 2.461001,-21.480403 a 1.2890333,1.2890333 0 0 1 1.336232,-1.14088 z"
         style="color:#000000;font-style:normal;font-variant:normal;font-weight:normal;font-stretch:normal;font-size:medium;line-height:normal;font-family:sans-serif;font-variant-ligatures:normal;font-variant-position:normal;font-variant-caps:normal;font-variant-numeric:normal;font-variant-alternates:normal;font-feature-settings:normal;text-indent:0;text-align:start;text-decoration:none;text-decoration-line:none;text-decoration-style:solid;text-decoration-color:#000000;letter-spacing:normal;word-spacing:normal;text-transform:none;writing-mode:lr-tb;direction:ltr;text-orientation:mixed;dominant-baseline:auto;baseline-shift:baseline;text-anchor:start;white-space:normal;shape-padding:0;clip-rule:nonzero;display:inline;overflow:visible;visibility:visible;opacity:1;isolation:auto;mix-blend-mode:normal;color-interpolation:sRGB;color-interpolation-filters:linearRGB;solid-color:#000000;solid-opacity:1;vector-effect:none;fill:#ff0000;fill-opacity:1;fill-rule:nonzero;stroke:#000000;stroke-width:0.99999994;stroke-linecap:round;stroke-linejoin:round;stroke-miterlimit:4.76923084;stroke-dasharray:none;stroke-dashoffset:0;stroke-opacity:1;color-rendering:auto;image-rendering:auto;shape-rendering:auto;text-rendering:auto;enable-background:accumulate" />
      <path
         inkscape:connector-curvature="0"
         id="path1020"
         d="m 55.549233,56.597713 a 1.2890333,1.2890333 0 0 1 0.340351,0.06545 l 8.972991,2.865796 a 1.2890333,1.2890333 0 0 1 0.875045,0.996883 l 2.442876,13.442875 a 1.2890333,1.2890333 0 0 1 -0.251739,1.022061 l -7.349776,9.427133 A 1.2892387,1.2892387 0 1 1 58.545936,82.83195 l 6.995327,-8.970982 -2.201207,-12.112676 -8.23489,-2.63017 a 1.2890333,1.2890333 0 0 1 0.444067,-2.520416 z"
         style="color:#000000;font-style:normal;font-variant:normal;font-weight:normal;font-stretch:normal;font-size:medium;line-height:normal;font-family:sans-serif;font-variant-ligatures:normal;font-variant-position:normal;font-variant-caps:normal;font-variant-numeric:normal;font-variant-alternates:normal;font-feature-settings:normal;text-indent:0;text-align:start;text-decoration:none;text-decoration-line:none;text-decoration-style:solid;text-decoration-color:#000000;letter-spacing:normal;word-spacing:normal;text-transform:none;writing-mode:lr-tb;direction:ltr;text-orientation:mixed;dominant-baseline:auto;baseline-shift:baseline;text-anchor:start;white-space:normal;shape-padding:0;clip-rule:nonzero;display:inline;overflow:visible;visibility:visible;opacity:1;isolation:auto;mix-blend-mode:normal;color-interpolation:sRGB;color-interpolation-filters:linearRGB;solid-color:#000000;solid-opacity:1;vector-effect:none;fill:#ff0000;fill-opacity:1;fill-rule:nonzero;stroke:#000000;stroke-width:0.99999994;stroke-linecap:round;stroke-linejoin:round;stroke-miterlimit:4.76923084;stroke-dasharray:none;stroke-dashoffset:0;stroke-opacity:1;color-rendering:auto;image-rendering:auto;shape-rendering:auto;text-rendering:auto;enable-background:accumulate" />
      <path
         style="opacity:1;vector-effect:none;fill:#ff6600;fill-opacity:1;stroke:#000000;stroke-width:0.99999994;stroke-linecap:round;stroke-linejoin:round;stroke-miterlimit:4.76923084;stroke-dasharray:none;stroke-dashoffset:0;stroke-opacity:1;paint-order:markers fill stroke"
         d="m 59.601201,43.712548 c 0,5.084588 -4.121873,9.206463 -9.20646,9.206463 -5.084587,0 -9.206463,-4.121875 -9.206463,-9.206463 0,-5.084588 4.121876,-15.098591 9.206463,-15.098591 5.084588,0 9.206461,10.014003 9.20646,15.098591 z"
         id="circle960"
         inkscape:connector-curvature="0"
         sodipodi:nodetypes="sssss" />
      <path
         style="opacity:1;vector-effect:none;fill:#ff6600;fill-opacity:1;stroke:#000000;stroke-width:0.99999994;stroke-linecap:round;stroke-linejoin:round;stroke-miterlimit:4.76923084;stroke-dasharray:none;stroke-dashoffset:0;stroke-opacity:1;paint-order:markers fill stroke"
         d="m 56.108478,54.852376 a 5.7137371,5.7137371 0 0 1 -5.713737,5.713738 5.7137371,5.7137371 0 0 1 -5.713737,-5.713738 5.7137371,5.7137371 0 0 1 5.713737,-5.713737 5.7137371,5.7137371 0 0 1 5.713737,5.713737 z"
         id="path958"
         inkscape:connector-curvature="0" />
      <path
         style="opacity:1;vector-effect:none;fill:#ff6600;fill-opacity:1;stroke:#000000;stroke-width:0.99999994;stroke-linecap:round;stroke-linejoin:round;stroke-miterlimit:4.76923084;stroke-dasharray:none;stroke-dashoffset:0;stroke-opacity:1;paint-order:markers fill stroke"
         d="m 57.183162,61.296888 a 6.7884211,6.7884211 0 0 1 -6.788421,6.788421 6.7884211,6.7884211 0 0 1 -6.788421,-6.788421 6.7884211,6.7884211 0 0 1 6.788421,-6.788421 6.7884211,6.7884211 0 0 1 6.788421,6.788421 z"
         id="circle963"
         inkscape:connector-curvature="0" />
      <path
         style="opacity:1;vector-effect:none;fill:#ffe680;fill-opacity:1;stroke:#000000;stroke-width:0.99999994;stroke-linecap:round;stroke-linejoin:round;stroke-miterlimit:4.76923084;stroke-dasharray:none;stroke-dashoffset:0;stroke-opacity:1;paint-order:markers fill stroke"
         d="m 57.387012,57.578832 c 1.110186,1.922896 -0.641992,4.887027 -2.564891,5.997211 -1.922897,1.110184 -3.288358,-0.05398 -4.398542,-1.976872 z"
         id="circle1032"
         inkscape:connector-curvature="0"
         sodipodi:nodetypes="cscc" />
      <path
         sodipodi:nodetypes="cscc"
         inkscape:connector-curvature="0"
         id="path1035"
         d="m 43.373295,58.816771 c -0.900002,1.558852 0.520444,3.961799 2.079296,4.861801 1.558843,0.900002 2.665795,-0.04379 3.565789,-1.602597 z"
         style="opacity:1;vector-effect:none;fill:#ffe680;fill-opacity:1;stroke:#000000;stroke-width:0.99999994;stroke-linecap:round;stroke-linejoin:round;stroke-miterlimit:4.76923084;stroke-dasharray:none;stroke-dashoffset:0;stroke-opacity:1;paint-order:markers fill stroke" />
    </g>
  </g>
  <g
     inkscape:groupmode="layer"
     id="layer6"
     inkscape:label="mob chest"
     style="display:none">
    <g
       id="chest"
       transform="translate(1.849011,-4.1320491)">
      <path
         inkscape:connector-curvature="0"
         id="path882"
         d="M 28.74167,75.610578 H 70.570497 L 75.060592,47.724699 24.960544,45.125168 Z"
         style="fill:#a05a2c;stroke:#000000;stroke-width:1;stroke-linecap:butt;stroke-linejoin:miter;stroke-miterlimit:6;stroke-dasharray:none;stroke-opacity:1" />
      <path
         sodipodi:nodetypes="ccccc"
         style="fill:#a05a2c;stroke:#000000;stroke-width:1;stroke-linecap:butt;stroke-linejoin:miter;stroke-miterlimit:6;stroke-dasharray:none;stroke-opacity:1"
         d="m 29.686961,31.418542 41.119858,1.890582 4.253773,14.415575 -50.100048,-2.599531 z"
         id="path884"
         inkscape:connector-curvature="0" />
    </g>
    <g
       id="padlock"
       transform="translate(1.849011,-4.1320491)">
      <rect
         ry="0.54027086"
         y="41.789783"
         x="42.535427"
         height="17.713043"
         width="17.713043"
         id="rect869"
         style="opacity:1;vector-effect:none;fill:#808080;fill-opacity:1;stroke:#000000;stroke-width:1;stroke-linecap:round;stroke-linejoin:round;stroke-miterlimit:6;stroke-dasharray:none;stroke-dashoffset:0;stroke-opacity:1;paint-order:markers fill stroke" />
      <path
         inkscape:connector-curvature="0"
         id="path871"
         d="m 51.356093,43.914226 a 3.4048544,3.4048544 0 0 0 -3.405615,3.405616 3.4048544,3.4048544 0 0 0 2.106168,3.14616 l -1.371409,6.434016 5.356967,0.492747 -0.972411,-7.13389 a 3.4048544,3.4048544 0 0 0 1.691897,-2.939033 3.4048544,3.4048544 0 0 0 -3.405597,-3.405616 z"
         style="opacity:1;vector-effect:none;fill:#000000;fill-opacity:1;stroke:none;stroke-width:2.07480025;stroke-linecap:round;stroke-linejoin:round;stroke-miterlimit:10;stroke-dasharray:none;stroke-dashoffset:0;stroke-opacity:1;paint-order:markers fill stroke" />
    </g>
  </g>
  <g
     inkscape:groupmode="layer"
     id="layer7"
     inkscape:label="map tile"
     style="display:none">
    <rect
       ry="0.36740202"
       y="0.75506335"
       x="73.49115"
       height="100"
       width="100"
       id="rect911"
       style="opacity:1;vector-effect:none;fill:#e3dedb;fill-opacity:1;stroke:none;stroke-width:2.9377892;stroke-linecap:round;stroke-linejoin:round;stroke-miterlimit:10;stroke-dasharray:none;stroke-dashoffset:0;stroke-opacity:1;paint-order:markers fill stroke" />
    <g
       style="display:inline"
       id="west"
       transform="translate(73.491149,0.75506336)">
      <path
         style="opacity:1;vector-effect:none;fill:#000000;fill-opacity:1;stroke:none;stroke-width:1.62366807;stroke-linecap:round;stroke-linejoin:round;stroke-miterlimit:4.76923084;stroke-dasharray:none;stroke-dashoffset:0;stroke-opacity:1;paint-order:markers fill stroke"
         d="M 0,25 H 75 V 75 H 0 Z"
         id="west-wall"
         inkscape:connector-curvature="0" />
      <path
         style="opacity:1;vector-effect:none;fill:#ffe680;fill-opacity:1;stroke:none;stroke-width:1.17084372;stroke-linecap:round;stroke-linejoin:round;stroke-miterlimit:4.76923084;stroke-dasharray:none;stroke-dashoffset:0;stroke-opacity:1;paint-order:markers fill stroke"
         d="M 0,35 H 65 V 65 H 0 Z"
         id="west-light"
         inkscape:connector-curvature="0" />
    </g>
    <g
       style="display:inline"
       id="north"
       transform="translate(73.491149,0.75506336)">
      <path
         style="opacity:1;vector-effect:none;fill:#000000;fill-opacity:1;stroke:none;stroke-width:1.62366807;stroke-linecap:round;stroke-linejoin:round;stroke-miterlimit:4.76923084;stroke-dasharray:none;stroke-dashoffset:0;stroke-opacity:1;paint-order:markers fill stroke"
         d="M 75,0 V 75 H 25 V 0 Z"
         id="north-wall"
         inkscape:connector-curvature="0" />
      <path
         style="opacity:1;vector-effect:none;fill:#ffe680;fill-opacity:1;stroke:none;stroke-width:1.17084372;stroke-linecap:round;stroke-linejoin:round;stroke-miterlimit:4.76923084;stroke-dasharray:none;stroke-dashoffset:0;stroke-opacity:1;paint-order:markers fill stroke"
         d="M 65,0 V 65 H 35 V 0 Z"
         id="north-light"
         inkscape:connector-curvature="0" />
    </g>
    <g
       style="display:inline"
       id="east"
       transform="translate(73.491149,0.75506336)">
      <path
         inkscape:connector-curvature="0"
         style="opacity:1;vector-effect:none;fill:#000000;fill-opacity:1;stroke:none;stroke-width:1.62366807;stroke-linecap:round;stroke-linejoin:round;stroke-miterlimit:4.76923084;stroke-dasharray:none;stroke-dashoffset:0;stroke-opacity:1;paint-order:markers fill stroke"
         d="M 100,75 H 25 V 25 h 75 z"
         id="east-wall" />
      <path
         inkscape:connector-curvature="0"
         style="opacity:1;vector-effect:none;fill:#ffe680;fill-opacity:1;stroke:none;stroke-width:1.17084372;stroke-linecap:round;stroke-linejoin:round;stroke-miterlimit:4.76923084;stroke-dasharray:none;stroke-dashoffset:0;stroke-opacity:1;paint-order:markers fill stroke"
         d="M 100,65 H 35 V 35 h 65 z"
         id="east-light" />
    </g>
    <g
       style="display:inline"
       id="south"
       transform="translate(73.491149,0.75506336)">
      <path
         style="opacity:1;vector-effect:none;fill:#000000;fill-opacity:1;stroke:none;stroke-width:1.62366807;stroke-linecap:round;stroke-linejoin:round;stroke-miterlimit:4.76923084;stroke-dasharray:none;stroke-dashoffset:0;stroke-opacity:1;paint-order:markers fill stroke"
         d="M 25,100 V 25 h 50 v 75 z"
         id="south-wall"
         inkscape:connector-curvature="0" />
      <path
         style="opacity:1;vector-effect:none;fill:#ffe680;fill-opacity:1;stroke:none;stroke-width:1.17084372;stroke-linecap:round;stroke-linejoin:round;stroke-miterlimit:4.76923084;stroke-dasharray:none;stroke-dashoffset:0;stroke-opacity:1;paint-order:markers fill stroke"
         d="M 35,100 V 35 h 30 v 65 z"
         id="south-light"
         inkscape:connector-curvature="0" />
    </g>
    <path
       style="display:inline;fill:#280b0b;fill-opacity:1;stroke:none;stroke-width:1.28571427px;stroke-linecap:butt;stroke-linejoin:miter;stroke-opacity:1"
       d="M 78.491149,5.7550634 H 168.49115 V 95.755063 H 78.491149 Z"
       id="room-wall"
       inkscape:connector-curvature="0" />
    <path
       inkscape:connector-curvature="0"
       id="room-light"
       d="m 88.491149,15.755063 h 70.000001 v 70 H 88.491149 Z"
       style="display:inline;fill:#ffe680;fill-opacity:1;stroke:none;stroke-width:1px;stroke-linecap:butt;stroke-linejoin:miter;stroke-opacity:1" />
    <g
       style="display:inline"
       id="explore"
       transform="translate(73.491149,0.75506336)">
      <rect
         transform="rotate(15)"
         ry="15.984251"
         y="0.35533905"
         x="26.237244"
         height="70"
         width="70"
         id="rect1047"
         style="opacity:1;vector-effect:none;fill:#ffe680;fill-opacity:1;stroke:none;stroke-width:1.54330707;stroke-linecap:round;stroke-linejoin:round;stroke-miterlimit:4.76923084;stroke-dasharray:none;stroke-dashoffset:0;stroke-opacity:1;paint-order:markers fill stroke" />
      <text
         transform="rotate(15)"
         xml:space="preserve"
         style="font-style:normal;font-variant:normal;font-weight:normal;font-stretch:normal;font-size:57.49302292px;line-height:1.25;font-family:sans-serif;-inkscape-font-specification:'sans-serif, Normal';font-variant-ligatures:normal;font-variant-caps:normal;font-variant-numeric:normal;font-feature-settings:normal;text-align:center;letter-spacing:0px;word-spacing:0px;writing-mode:lr-tb;text-anchor:middle;fill:#ffffff;fill-opacity:1;stroke:none;stroke-width:2.15598845"
         x="61.195133"
         y="56.690643"
         id="text26-3-7-3"><tspan
           id="tspan24-6-5-6"
           x="61.195133"
           y="56.690643"
           style="stroke-width:2.15598845">?</tspan></text>
    </g>
  </g>
</svg>
