<?xml version="1.0" encoding="UTF-8" standalone="no"?>
<!-- Created with Inkscape (http://www.inkscape.org/) -->

<svg
   xmlns:dc="http://purl.org/dc/elements/1.1/"
   xmlns:cc="http://creativecommons.org/ns#"
   xmlns:rdf="http://www.w3.org/1999/02/22-rdf-syntax-ns#"
   xmlns:svg="http://www.w3.org/2000/svg"
   xmlns="http://www.w3.org/2000/svg"
   xmlns:sodipodi="http://sodipodi.sourceforge.net/DTD/sodipodi-0.dtd"
   xmlns:inkscape="http://www.inkscape.org/namespaces/inkscape"
   width="200"
   height="200"
   viewBox="0 0 200 200"
   version="1.1"
   id="svg8"
   inkscape:version="0.92.3 (2405546, 2018-03-11)"
   sodipodi:docname="deep-of-doom.svg">
  <defs
     id="defs2" />
  <sodipodi:namedview
     id="base"
     pagecolor="#ffffff"
     bordercolor="#666666"
     borderopacity="1.0"
     inkscape:pageopacity="0.0"
     inkscape:pageshadow="2"
     inkscape:zoom="3.959798"
     inkscape:cx="21.399892"
     inkscape:cy="28.398114"
     inkscape:document-units="px"
     inkscape:current-layer="layer1"
     showgrid="false"
     inkscape:window-width="1853"
     inkscape:window-height="1025"
     inkscape:window-x="67"
     inkscape:window-y="27"
     inkscape:window-maximized="1"
     units="px" />
  <metadata
     id="metadata5">
    <rdf:RDF>
      <cc:Work
         rdf:about="">
        <dc:format>image/svg+xml</dc:format>
        <dc:type
           rdf:resource="http://purl.org/dc/dcmitype/StillImage" />
        <dc:title></dc:title>
      </cc:Work>
    </rdf:RDF>
  </metadata>
  <g
     inkscape:label="Layer 1"
     inkscape:groupmode="layer"
     id="layer1"
     transform="translate(0,-270.54166)">

    <g
        id="staff">
        <use
            height="100%"
            width="100%"
            transform="translate(29.420692,-0.07168)"
            id="use1027"
            xlink:href="#actionbg"
            y="0"
            x="0" />
        <path
            style="opacity:1;vector-effect:none;fill:#cc00ff;fill-opacity:1;stroke:#800000;stroke-width:0.8501454;stroke-linecap:round;stroke-linejoin:round;stroke-miterlimit:4;stroke-dasharray:none;stroke-dashoffset:0;stroke-opacity:1;paint-order:markers fill stroke"
            id="path1029"
            d="m 18.292169,14.787486 -3.570851,-0.06617 0.06617,3.570851 L 11.728122,16.449441 10,19.574972 8.2718775,16.449441 5.2125139,18.292169 5.2786817,14.721318 1.7078309,14.787486 3.5505593,11.728122 0.42502785,10 3.5505593,8.2718775 1.7078309,5.2125139 5.2786817,5.2786817 5.212514,1.7078309 8.2718776,3.5505593 10,0.42502785 11.728122,3.5505593 14.787486,1.7078309 14.721318,5.2786817 18.292169,5.212514 16.449441,8.2718776 19.574972,10 16.449441,11.728122 Z" />
    </g>
    <g
        id="tough">
        <use
            height="100%"
            width="100%"
            transform="translate(29.420692,-0.07168)"
            id="use1027"
            xlink:href="#actionbg"
            y="0"
            x="0" />
        <path
            style="opacity:1;vector-effect:none;fill:#ffff00;fill-opacity:1;stroke:#800000;stroke-width:0.8501454;stroke-linecap:round;stroke-linejoin:round;stroke-miterlimit:4;stroke-dasharray:none;stroke-dashoffset:0;stroke-opacity:1;paint-order:markers fill stroke"
            id="path1029"
            d="m 18.292169,14.787486 -3.570851,-0.06617 0.06617,3.570851 L 11.728122,16.449441 10,19.574972 8.2718775,16.449441 5.2125139,18.292169 5.2786817,14.721318 1.7078309,14.787486 3.5505593,11.728122 0.42502785,10 3.5505593,8.2718775 1.7078309,5.2125139 5.2786817,5.2786817 5.212514,1.7078309 8.2718776,3.5505593 10,0.42502785 11.728122,3.5505593 14.787486,1.7078309 14.721318,5.2786817 18.292169,5.212514 16.449441,8.2718776 19.574972,10 16.449441,11.728122 Z" />
    </g>
    <g
        id="hit">
        <use
            height="100%"
            width="100%"
            transform="translate(29.420692,-0.07168)"
            id="use1027"
            xlink:href="#actionbg"
            y="0"
            x="0" />
        <path
            style="opacity:1;vector-effect:none;fill:#ff0000;fill-opacity:1;stroke:#800000;stroke-width:0.8501454;stroke-linecap:round;stroke-linejoin:round;stroke-miterlimit:4;stroke-dasharray:none;stroke-dashoffset:0;stroke-opacity:1;paint-order:markers fill stroke"
            id="path1029"
            d="m 18.292169,14.787486 -3.570851,-0.06617 0.06617,3.570851 L 11.728122,16.449441 10,19.574972 8.2718775,16.449441 5.2125139,18.292169 5.2786817,14.721318 1.7078309,14.787486 3.5505593,11.728122 0.42502785,10 3.5505593,8.2718775 1.7078309,5.2125139 5.2786817,5.2786817 5.212514,1.7078309 8.2718776,3.5505593 10,0.42502785 11.728122,3.5505593 14.787486,1.7078309 14.721318,5.2786817 18.292169,5.212514 16.449441,8.2718776 19.574972,10 16.449441,11.728122 Z" />
    </g>
    <g
        id="life">
        <use
            x="0"
            y="0"
            xlink:href="#actionbg"
            id="use1031"
            transform="translate(29.420692,-0.071683)"
            width="100%"
            height="100%" />
        <path
            style="opacity:1;vector-effect:none;fill:#ffff00;fill-opacity:1;stroke:none;stroke-width:0.88788283;stroke-linecap:round;stroke-linejoin:round;stroke-miterlimit:4;stroke-dasharray:none;stroke-dashoffset:0;stroke-opacity:1;paint-order:markers fill stroke"
            id="path881"
            d="M 18.660254,15 14.930895,14.930895 15,18.660254 11.804833,16.735727 10,20 8.1951672,16.735727 5,18.660254 5.0691053,14.930895 1.3397459,15 3.2642726,11.804833 0,10 3.2642726,8.1951672 1.339746,5 5.0691054,5.0691053 5,1.3397459 8.1951673,3.2642726 10,0 11.804833,3.2642726 15,1.339746 14.930895,5.0691054 18.660254,5 16.735727,8.1951673 20,10 16.735727,11.804833 Z" />
        <path
            id="path902"
            d="m 2.411794,8.137117 a 3.9229259,3.9229259 0 0 0 1.43589,5.358816 l 6.79471,3.922926 3.92292,-6.794706 a 3.9229259,3.9229259 0 0 0 -1.43589,-5.358816 3.9229259,3.9229259 0 0 0 -5.35881,1.43589 3.9229259,3.9229259 0 0 0 -5.35882,1.43589 z"
            style="opacity:1;vector-effect:none;fill:#ff0000;fill-opacity:1;stroke:none;stroke-width:0.48282164;stroke-linecap:round;stroke-linejoin:round;stroke-miterlimit:4;stroke-dasharray:none;stroke-dashoffset:0;stroke-opacity:1;paint-order:markers fill stroke" />
    </g>
    <g
        id="gold">
        <use
            x="0"
            y="0"
            xlink:href="#actionbg"
            id="use1019"
            transform="translate(29.420692,-0.07168)"
            width="100%"
            height="100%" />
        <circle
            style="opacity:1;vector-effect:none;fill:#ffd42a;fill-opacity:1;stroke:none;stroke-width:1.18588233;stroke-linecap:round;stroke-linejoin:round;stroke-miterlimit:4;stroke-dasharray:none;stroke-dashoffset:0;stroke-opacity:1;paint-order:markers fill stroke"
            id="circle1139"
            cx="10"
            cy="10"
            r="9" />
        <path
            style="color:#000000;font-style:normal;font-variant:normal;font-weight:normal;font-stretch:normal;font-size:medium;line-height:normal;font-family:sans-serif;font-variant-ligatures:normal;font-variant-position:normal;font-variant-caps:normal;font-variant-numeric:normal;font-variant-alternates:normal;font-feature-settings:normal;text-indent:0;text-align:start;text-decoration:none;text-decoration-line:none;text-decoration-style:solid;text-decoration-color:#000000;letter-spacing:normal;word-spacing:normal;text-transform:none;writing-mode:lr-tb;direction:ltr;text-orientation:mixed;dominant-baseline:auto;baseline-shift:baseline;text-anchor:start;white-space:normal;shape-padding:0;clip-rule:nonzero;display:inline;overflow:visible;visibility:visible;opacity:1;isolation:auto;mix-blend-mode:normal;color-interpolation:sRGB;color-interpolation-filters:linearRGB;solid-color:#000000;solid-opacity:1;vector-effect:none;fill:#aa8800;fill-opacity:1;fill-rule:nonzero;stroke:none;stroke-width:1.00897074;stroke-linecap:round;stroke-linejoin:round;stroke-miterlimit:4;stroke-dasharray:none;stroke-dashoffset:0;stroke-opacity:1;paint-order:markers fill stroke;color-rendering:auto;image-rendering:auto;shape-rendering:auto;text-rendering:auto;enable-background:accumulate"
            d="m 10.000555,1.837887 c -4.50169,0 -8.16211,3.660418 -8.16211,8.162109 0,4.501691 3.66042,8.162109 8.16211,8.162109 4.50169,0 8.16211,-3.660418 8.16211,-8.162109 0,-4.501691 -3.66042,-8.162109 -8.16211,-8.162109 z m 0,1.009765 c 3.95641,0 7.15235,3.195941 7.15235,7.152344 0,3.956403 -3.19594,7.152344 -7.15235,7.152344 -3.9564,0 -7.15429,-3.195941 -7.15429,-7.152344 0,-3.956403 3.19789,-7.152344 7.15429,-7.152344 z"
            id="circle991" />
        <g
            aria-label="1"
            style="font-style:normal;font-variant:normal;font-weight:normal;font-stretch:normal;font-size:18.59233475px;line-height:1.25;font-family:'AR JULIAN';-inkscape-font-specification:'AR JULIAN, Normal';font-variant-ligatures:normal;font-variant-caps:normal;font-variant-numeric:normal;font-feature-settings:normal;text-align:start;letter-spacing:0px;word-spacing:0px;writing-mode:lr-tb;text-anchor:start;fill:#aa8800;fill-opacity:1;stroke:none;stroke-width:0.46480837"
            id="text1007"
            transform="matrix(0.9,0,0,0.9,-93.017856,-30.500004)">
        <path
            d="m 115.88324,49.158811 q 0,0.508384 0.5447,0.68995 0.2905,0.09078 0.49023,0.217879 0.21788,0.127096 0.21788,0.272348 0,0.490228 -0.45392,0.490228 h -4.39389 q -0.30866,0 -0.36313,-0.108939 -0.0545,-0.127096 -0.0545,-0.381289 0,-0.145252 0.23603,-0.272348 0.23604,-0.127096 0.52654,-0.217879 0.56286,-0.181566 0.56286,-0.68995 v -8.424652 q -0.34498,0.127096 -0.59917,0.181566 -0.25419,0.03631 -0.59917,0.127096 -0.21787,0.05447 -0.39944,-0.09078 -0.16341,-0.163409 -0.21788,-0.381288 -0.0545,-0.217879 0.0363,-0.435758 0.0908,-0.236035 0.41761,-0.326818 0.58101,-0.163409 1.03492,-0.308662 0.45391,-0.145253 0.81705,-0.272349 0.38128,-0.145252 0.7081,-0.254192 0.32682,-0.127096 0.6718,-0.217879 0.0726,-0.01816 0.21787,-0.01816 0.14526,-0.01816 0.27235,0.03631 0.1271,0.03631 0.21788,0.181566 0.10894,0.127096 0.10894,0.399444 z"
            style="fill:#aa8800;stroke-width:0.46480837"
            id="path1009" />
        </g>
    </g>
    <path
        id="actionbg"
        d="m -26.96786,0.07167955 h 15.094339 c 1.358868,0 2.4528315,1.09396305 2.4528315,2.45283105 V 17.61885 c 0,1.358868 -1.0939635,2.45283 -2.4528315,2.45283 H -26.96786 c -1.358868,0 -2.45283,-1.093962 -2.45283,-2.45283 V 2.5245106 c 0,-1.358868 1.093962,-2.45283105 2.45283,-2.45283105 z"
        style="opacity:1;vector-effect:none;fill:#cccccc;fill-opacity:1;stroke:none;stroke-width:1.49426341;stroke-linecap:round;stroke-linejoin:round;stroke-miterlimit:4;stroke-dasharray:none;stroke-dashoffset:0;stroke-opacity:1;paint-order:markers fill stroke" />

    </defs>

    <g id="mob" class="fall-in-item">
        <g class="fight-mob-monster"></g>
        <image width="62.779438"
           height="37.412838"
           preserveAspectRatio="none"
           xlink:href="assets/chest-closed.png"
           id="image1007"
           x="18.610281"
           y="46.650723" />
        <g id="exit">
          <path
             style="opacity:1;vector-effect:none;fill:#161313;fill-opacity:1;stroke:none;stroke-width:6.29921293;stroke-linecap:round;stroke-linejoin:round;stroke-miterlimit:4;stroke-dasharray:none;stroke-dashoffset:0;stroke-opacity:1;paint-order:markers fill stroke"
             d="M 50 10 A 25 25 0 0 0 25 35 A 25 25 0 0 0 25.283203 38.582031 C 25.102972 39.115386 25 39.685535 25 40.28125 L 25 79.71875 C 25 82.644461 27.355539 85 30.28125 85 L 69.71875 85 C 72.644461 85 75 82.644461 75 79.71875 L 75 40.28125 C 75 39.680527 74.896036 39.10554 74.712891 38.568359 A 25 25 0 0 0 75 35 A 25 25 0 0 0 50 10 z "
             id="rect844" />
        </g>
    </g>
    <g id="hits">
        <circle class="fall-in-item"
            style="opacity:1;vector-effect:none;fill:#880000;fill-opacity:1;stroke:none;stroke-width:5.6692915;stroke-linecap:round;stroke-linejoin:round;stroke-miterlimit:4;stroke-dasharray:none;stroke-dashoffset:0;stroke-opacity:1;paint-order:markers fill stroke"
            id="path16"
            cx="67.946426"
            cy="57.589287"
            r="6.1607141" />
        <text class="fall-in-item"
            xml:space="preserve"
            style="font-style:normal;font-variant:normal;font-weight:normal;font-stretch:normal;font-size:10.3057642px;line-height:1.25;font-family:sans-serif;-inkscape-font-specification:'sans-serif, Normal';font-variant-ligatures:normal;font-variant-caps:normal;font-variant-numeric:normal;font-feature-settings:normal;text-align:center;letter-spacing:0px;word-spacing:0px;writing-mode:lr-tb;text-anchor:middle;fill:#ffffff;fill-opacity:1;stroke:none;stroke-width:0.38646615"
            x="68.087326"
            y="61.428574"
            id="text20"><tspan
            id="tspan18"
            x="68.087326"
            y="61.428574"
            style="stroke-width:0.38646615">{{life}}</tspan></text>
    </g>
    <g id="action">
        <rect class="fall-in-item"
            style="opacity:0.6;vector-effect:none;fill:#000000;fill-opacity:1;stroke:none;stroke-width:5.6692915;stroke-linecap:round;stroke-linejoin:round;stroke-miterlimit:4;stroke-dasharray:none;stroke-dashoffset:0;stroke-opacity:1;paint-order:markers fill stroke"
            id="rect68"
            width="54.285713"
            height="10.178572"
            x="22.857143"
            y="85.535713"
            ry="4.7529593" />
        <text class="fall-in-item"
            xml:space="preserve"
            style="font-style:normal;font-variant:normal;font-weight:normal;font-stretch:normal;font-size:10.3057642px;line-height:1.25;font-family:sans-serif;-inkscape-font-specification:'sans-serif, Normal';font-variant-ligatures:normal;font-variant-caps:normal;font-variant-numeric:normal;font-feature-settings:normal;text-align:center;letter-spacing:0px;word-spacing:0px;writing-mode:lr-tb;text-anchor:middle;fill:#ffffff;fill-opacity:1;stroke:none;stroke-width:0.38646615"
            x="50.1409"
            y="94.449402"
            id="text26-3"><tspan
            id="tspan24-6"
            x="50.1409"
            y="94.449402"
            style="stroke-width:0.38646615">{{action.action}}</tspan></text>
    </g>

    <g id="win" >
        <circle
            style="opacity:0.6;vector-effect:none;fill:#000000;fill-opacity:1;stroke:none;stroke-width:5.6692915;stroke-linecap:round;stroke-linejoin:round;stroke-miterlimit:4;stroke-dasharray:none;stroke-dashoffset:0;stroke-opacity:1;paint-order:markers fill stroke"
            id="path936"
            cx="50"
            cy="37.142857"
            r="18.839285" />
        <text
            id="text26-3-7"
            y="40.984875"
            x="50.13335"
            style="font-style:normal;font-variant:normal;font-weight:normal;font-stretch:normal;font-size:10.3057642px;line-height:1.25;font-family:sans-serif;-inkscape-font-specification:'sans-serif, Normal';font-variant-ligatures:normal;font-variant-caps:normal;font-variant-numeric:normal;font-feature-settings:normal;text-align:center;letter-spacing:0px;word-spacing:0px;writing-mode:lr-tb;text-anchor:middle;fill:#ffffff;fill-opacity:1;stroke:none;stroke-width:0.38646615"
            xml:space="preserve"><tspan
            style="stroke-width:0.38646615"
            y="40.984875"
            x="50.13335"
            id="tspan24-6-5">WIN</tspan></text>
    </g>

    <g id="exit">
        <circle
            style="opacity:0.6;vector-effect:none;fill:#000000;fill-opacity:1;stroke:none;stroke-width:5.6692915;stroke-linecap:round;stroke-linejoin:round;stroke-miterlimit:4;stroke-dasharray:none;stroke-dashoffset:0;stroke-opacity:1;paint-order:markers fill stroke"
            id="path936"
            cx="50"
            cy="37.142857"
            r="18.839285" />
        <text
            id="text26-3-7"
            y="40.984875"
            x="50.13335"
            style="font-style:normal;font-variant:normal;font-weight:normal;font-stretch:normal;font-size:10.3057642px;line-height:1.25;font-family:sans-serif;-inkscape-font-specification:'sans-serif, Normal';font-variant-ligatures:normal;font-variant-caps:normal;font-variant-numeric:normal;font-feature-settings:normal;text-align:center;letter-spacing:0px;word-spacing:0px;writing-mode:lr-tb;text-anchor:middle;fill:#ffffff;fill-opacity:1;stroke:none;stroke-width:0.38646615"
            xml:space="preserve"><tspan
            style="stroke-width:0.38646615"
            y="40.984875"
            x="50.13335"
            id="tspan24-6-5">EXIT!</tspan></text>
    </g>


  </g>
</svg>
